<svg aria-hidden="true" style="position: absolute; width: 0; height: 0; overflow: hidden;" version="1.1" xmlns="http://www.w3.org/2000/svg" xmlns:xlink="http://www.w3.org/1999/xlink">
<defs>
<symbol id="icon-envelope" viewBox="0 0 30 30">
<path d="M27.188 3.75h-24.375c-1.553 0-2.813 1.259-2.813 2.813v16.875c0 1.552 1.259 2.813 2.813 2.813h24.375c1.553 0 2.813-1.26 2.813-2.813v-16.875c0-1.553-1.259-2.813-2.813-2.813zM2.57 24.366l-0.685-0.686 7.733-7.733 0.685 0.686-7.733 7.732zM27.43 24.366l-7.733-7.733 0.685-0.686 7.733 7.732-0.685 0.686zM15.938 18.117v0.633h-1.875v-0.633l-12.185-11.297 1.193-1.192 11.93 11.061 11.93-11.061 1.192 1.192-12.185 11.297z"></path>
</symbol>
<symbol id="icon-checkmark" viewBox="0 0 30 30">
<path d="M29.724 6.687l-2.662-2.662c-0.368-0.368-0.962-0.368-1.33 0l-13.608 14.366-7.8-7.804c-0.372-0.372-0.976-0.372-1.348 0l-2.696 2.698c-0.372 0.371-0.372 0.975 0 1.348l11.093 11.351c0.215 0.216 0.506 0.29 0.787 0.253 0.29 0.043 0.592-0.030 0.814-0.253l16.75-17.967c0.368-0.367 0.368-0.964 0-1.331z"></path>
</symbol>
<symbol id="icon-github" viewBox="0 0 30 30">
<path d="M15 0.37c-8.283 0-15 6.715-15 15 0 6.627 4.298 12.25 10.258 14.233 0.75 0.139 1.025-0.325 1.025-0.722 0-0.358-0.014-1.539-0.020-2.793-4.173 0.908-5.054-1.77-5.054-1.77-0.682-1.734-1.665-2.195-1.665-2.195-1.361-0.931 0.103-0.912 0.103-0.912 1.506 0.106 2.299 1.546 2.299 1.546 1.338 2.293 3.509 1.63 4.365 1.247 0.134-0.969 0.523-1.631 0.952-2.006-3.332-0.379-6.834-1.666-6.834-7.413 0-1.638 0.586-2.976 1.546-4.026-0.156-0.378-0.67-1.903 0.145-3.97 0 0 1.26-0.403 4.126 1.538 1.196-0.332 2.48-0.499 3.755-0.505 1.274 0.006 2.559 0.172 3.757 0.505 2.863-1.941 4.121-1.538 4.121-1.538 0.817 2.066 0.303 3.592 0.148 3.97 0.962 1.050 1.544 2.389 1.544 4.026 0 5.761-3.509 7.030-6.849 7.401 0.538 0.466 1.017 1.378 1.017 2.778 0 2.007-0.017 3.622-0.017 4.116 0 0.399 0.27 0.867 1.030 0.72 5.957-1.986 10.249-7.606 10.249-14.231 0-8.285-6.716-15-15-15z"></path>
</symbol>
<symbol id="icon-chevron-small-down" viewBox="0 0 30 30">
<path d="M20.127 11.789c0.406-0.402 1.064-0.402 1.467 0 0.405 0.402 0.408 1.051 0 1.454l-5.862 5.745c-0.405 0.402-1.060 0.402-1.469 0l-5.862-5.745c-0.405-0.4-0.405-1.051 0-1.454 0.406-0.402 1.064-0.402 1.467 0l5.131 4.711 5.127-4.711z"></path>
</symbol>
<symbol id="icon-chevron-thin-down" viewBox="0 0 30 30">
<path d="M26.127 9.164c0.408-0.402 1.064-0.402 1.469 0s0.406 1.051 0 1.454l-11.862 11.745c-0.405 0.402-1.060 0.402-1.469 0l-11.862-11.745c-0.405-0.402-0.405-1.051 0-1.454 0.406-0.402 1.064-0.402 1.469 0l11.129 10.711 11.127-10.711z"></path>
</symbol>
<symbol id="icon-chevron-thin-up" viewBox="0 0 30 30">
<path d="M3.873 20.836c-0.408 0.402-1.064 0.402-1.469 0s-0.406-1.051 0-1.454l11.862-11.745c0.405-0.402 1.060-0.402 1.469 0l11.862 11.745c0.405 0.402 0.405 1.051 0 1.454-0.406 0.402-1.064 0.402-1.467 0l-11.13-10.711-11.127 10.711z"></path>
</symbol>
<symbol id="icon-chevron-up" viewBox="0 0 30 30">
<path d="M23.226 18.678c-0.654 0.669-1.565 0.721-2.364 0l-5.862-5.62-5.862 5.62c-0.8 0.721-1.711 0.669-2.361 0-0.654-0.668-0.612-1.795 0-2.422 0.609-0.627 7.042-6.753 7.042-6.753 0.325-0.335 0.753-0.502 1.18-0.502s0.855 0.168 1.184 0.502c0 0 6.43 6.126 7.043 6.753 0.614 0.627 0.654 1.755 0 2.422z"></path>
</symbol>
<symbol id="icon-mail" viewBox="0 0 30 30">
<path d="M2.361 7.929c0.732 0.393 10.872 5.841 11.25 6.044s0.867 0.299 1.359 0.299c0.492 0 0.981-0.096 1.359-0.299s10.518-5.65 11.25-6.044c0.734-0.395 1.426-1.929 0.081-1.929h-25.379c-1.345 0-0.652 1.535 0.080 1.929zM27.92 11.234c-0.832 0.434-11.080 5.774-11.59 6.040s-0.867 0.299-1.359 0.299-0.849-0.031-1.359-0.299-10.7-5.609-11.532-6.042c-0.585-0.306-0.579 0.053-0.579 0.329s0 10.94 0 10.94c0 0.63 0.849 1.5 1.5 1.5h24c0.651 0 1.5-0.87 1.5-1.5 0 0 0-10.662 0-10.938s0.006-0.635-0.58-0.329z"></path>
</symbol>
<symbol id="icon-facebook-with-circle" viewBox="0 0 30 30">
<path d="M15 0.6c-7.953 0-14.4 6.447-14.4 14.4s6.447 14.4 14.4 14.4 14.4-6.447 14.4-14.4-6.447-14.4-14.4-14.4zM18.411 10.551h-2.165c-0.256 0-0.541 0.337-0.541 0.786v1.563h2.707l-0.41 2.229h-2.298v6.691h-2.555v-6.691h-2.317v-2.229h2.317v-1.311c0-1.881 1.305-3.41 3.096-3.41h2.165v2.371z"></path>
</symbol>
<symbol id="icon-facebook" viewBox="0 0 30 30">
<path d="M25.5 1.5h-21c-1.65 0-3 1.35-3 3v21c0 1.651 1.35 3 3 3h10.5v-10.5h-3v-3.713h3v-3.075c0-3.246 1.818-5.526 5.649-5.526l2.705 0.003v3.908h-1.795c-1.491 0-2.058 1.119-2.058 2.157v2.535h3.852l-0.852 3.711h-3v10.5h6c1.65 0 3-1.349 3-3v-21c0-1.65-1.35-3-3-3z"></path>
</symbol>
<symbol id="icon-linkedin-with-circle" viewBox="0 0 30 30">
<path d="M15 0.6c-7.953 0-14.4 6.447-14.4 14.4s6.447 14.4 14.4 14.4 14.4-6.447 14.4-14.4-6.447-14.4-14.4-14.4zM11.475 20.969h-2.916v-9.384h2.916v9.384zM9.999 10.433c-0.921 0-1.516-0.652-1.516-1.46 0-0.824 0.614-1.456 1.554-1.456s1.516 0.633 1.535 1.456c0 0.807-0.594 1.46-1.572 1.46zM22.125 20.969h-2.916v-5.2c0-1.21-0.423-2.032-1.478-2.032-0.805 0-1.284 0.556-1.495 1.092-0.078 0.19-0.098 0.46-0.098 0.729v5.41h-2.917v-6.39c0-1.171-0.037-2.151-0.076-2.994h2.534l0.134 1.304h0.059c0.384-0.612 1.325-1.515 2.898-1.515 1.919 0 3.357 1.285 3.357 4.049v5.549z"></path>
</symbol>
<symbol id="icon-linkedin" viewBox="0 0 30 30">
<path d="M7.5 4.5c0 1.593-1.065 2.964-3.001 2.964-1.822 0-2.999-1.293-2.999-2.886 0-1.635 1.14-3.078 3-3.078s2.964 1.365 3 3zM1.5 28.5v-19.5h6v19.5h-6z"></path>
<path d="M10.5 15.666c0-2.317-0.076-4.254-0.153-5.926h5.391l0.267 2.585h0.114c0.759-1.216 2.619-3 5.733-3 3.798 0 6.648 2.543 6.648 8.013v11.163h-6v-10.291c0-2.391-0.91-4.215-3-4.215-1.593 0-2.391 1.29-2.81 2.354-0.153 0.381-0.19 0.912-0.19 1.445v10.709h-6v-12.834z"></path>
</symbol>
<symbol id="icon-arrow-right-thick" viewBox="0 0 30 30">
<path d="M13.232 8.233c-0.976 0.974-0.976 2.559 0 3.535l1.982 1.982h-9.055c-1.38 0-2.5 1.119-2.5 2.5 0 1.38 1.12 2.5 2.5 2.5h9.055l-1.982 1.982c-0.976 0.974-0.976 2.559 0 3.535 0.489 0.489 1.127 0.733 1.768 0.733s1.279-0.244 1.768-0.733l8.017-8.018-8.017-8.017c-0.976-0.976-2.559-0.976-3.535 0z"></path>
</symbol>
<symbol id="icon-arrow-left-thick" viewBox="0 0 30 30">
<path d="M22.5 13.75h-9.055l1.982-1.982c0.976-0.976 0.976-2.561 0-3.535-0.976-0.976-2.559-0.976-3.535 0l-8.018 8.018 8.018 8.017c0.487 0.489 1.127 0.733 1.768 0.733s1.279-0.244 1.768-0.733c0.976-0.976 0.976-2.561 0-3.535l-1.982-1.982h9.055c1.38 0 2.5-1.12 2.5-2.5 0-1.381-1.12-2.5-2.5-2.5z"></path>
</symbol>
<symbol id="icon-minus" viewBox="0 0 30 30">
<path d="M22.5 13.75h-15c-1.38 0-2.5 1.12-2.5 2.5s1.12 2.5 2.5 2.5h15c1.38 0 2.5-1.12 2.5-2.5s-1.12-2.5-2.5-2.5z"></path>
</symbol>
</defs>
</svg>
