<?xml version="1.0" encoding="utf-8"?>
<!-- Generator: Adobe Illustrator 24.0.1, SVG Export Plug-In . SVG Version: 6.00 Build 0)  -->
<svg version="1.1" id="Layer_1" xmlns="http://www.w3.org/2000/svg" xmlns:xlink="http://www.w3.org/1999/xlink" x="0px" y="0px"
	 viewBox="0 0 500 500" style="enable-background:new 0 0 500 500;" xml:space="preserve">
<style type="text/css">
	.st0{fill:#82171D;}
</style>
<g>
	<g>
		<g>
			<g>
				<path d="M200.46,294.89v-10.28c0-3.14-0.75-5.4-2.68-7.62c-2.03-2.1-3.92-2.6-6.68-2.6h-8.12v20.57h-4.78v-1.57h3.34v-20.62
					h9.57c3.2,0,5.33,0.65,7.64,3.06c2.34,2.56,3.17,5.12,3.17,8.76v10.28H200.46z"/>
				<path d="M220.74,294.89c0-4.17,0-10.25,0-10.25c0-2.87-0.65-5.66-2.58-7.73c-1.86-2.07-4.41-2.52-7.09-2.52h-5.92v-1.61h5.79
					c3.13,0,6.05,0.62,8.26,3.02c2.24,2.41,2.99,5.39,2.99,8.84c0,0,0,6.08,0,10.25H220.74z"/>
				<path d="M237.95,294.97c-7.81,0-12.15-7.88-12.15-14.19v-7.99h1.42v7.99c0,5.63,3.85,12.63,10.73,12.63s10.77-7,10.77-12.63
					v-7.99h1.41v7.99C250.13,287.09,245.76,294.97,237.95,294.97z M237.26,290.72v-17.94h1.41v17.94H237.26z"/>
				<path d="M264.87,294.89v-8.33l-9.09,8.33h-2.13l11.22-10.44c0-3.02-0.07-5.09-2.03-7.27c-1.79-2.06-3.82-2.83-6.37-2.83h-2.58
					v-1.57h2.58c2.99,0,5.3,0.92,7.46,3.25c2.21,2.53,2.41,5.05,2.35,8.61v10.25H264.87z"/>
				<path d="M278.8,294.89v-1.53H289v-9.41c0-5.39-3.75-9.56-8.61-9.56c-4.65,0-8.64,4.55-8.64,9.79v10.75h-1.44v-10.75
					c0-6.12,4.5-11.4,10.05-11.4c5.68,0,10.05,4.9,10.05,11.17v10.94H278.8z"/>
				<path d="M294.16,294.89v-22.15h1.41v22.15H294.16z"/>
				<path d="M310.85,298.22v-25.47h1.41v25.47H310.85z"/>
				<path d="M316.25,285.18v-12.43h1.45v12.43H316.25z"/>
				<path d="M336.46,274.36v20.54h-1.41v-20.54h-13.59v-1.61h17.93v1.61H336.46z"/>
				<path d="M374.11,294.89v-10.28c0-3.14-0.76-5.4-2.68-7.62c-2.03-2.1-3.93-2.6-6.68-2.6h-8.12v20.57h-4.79v-1.57h3.33v-20.62
					h9.57c3.2,0,5.33,0.65,7.64,3.06c2.34,2.56,3.16,5.12,3.16,8.76v10.28H374.11z"/>
				<path d="M388.39,294.89h-9.16v-1.49h9.16c5.68,0,8.57-4.56,8.57-9.57c0-4.93-2.82-9.48-9.02-9.48h-8.71v-1.57h8.71
					c6.68,0,10.46,5.32,10.46,11.05C398.41,289.61,394.83,294.89,388.39,294.89z"/>
				<path d="M416.52,294.89c0-4.17,0-10.25,0-10.25c0-2.87-0.66-5.66-2.58-7.73c-1.86-2.07-4.41-2.52-7.1-2.52h-5.92v-1.61h5.79
					c3.13,0,6.05,0.62,8.26,3.02c2.24,2.41,2.99,5.39,2.99,8.84c0,0,0,6.08,0,10.25H416.52z"/>
				<path d="M421.61,294.89v-22.15h1.41v22.15H421.61z"/>
				<path d="M437.03,294.89h-10.74v-1.49h4.24v-20.62h1.34v20.62h5.16c1.82,0,8.63-1.19,8.63-10.29v-10.33h1.35v9.95
					C447.01,293.4,439.78,294.89,437.03,294.89z"/>
			</g>
			<g>
				<g>
					<path d="M75.01,253.59c0-5.89,0-14.47,0-14.47c0-4.05-0.92-8-3.64-10.91c-2.62-2.92-6.22-3.57-10.01-3.57h-8.36v-2.27h8.17
						c4.42,0,8.55,0.86,11.67,4.27c3.16,3.4,4.23,7.62,4.23,12.48c0,0,0,8.58,0,14.47H75.01z"/>
					<path d="M82.1,239.88v-17.55h2.04v17.55H82.1z"/>
					<path d="M103.54,253.7H89.83v-2.22h13.71c7.49,0,12.4-5.62,12.3-13.93c-0.1-7.94-6.46-12.91-13.51-12.91h-10.5v18.52h-2.04
						v-20.79h12.54c8.22,0,15.46,5.89,15.51,15.18C117.93,247.17,112.14,253.7,103.54,253.7z"/>
					<path d="M137.61,254.35c-7.88,0-15.26-6.32-15.26-18.47v-13.5h30.62v14.58C152.97,248.03,145.49,254.35,137.61,254.35z
						 M151.12,224.54h-26.88v11.35c0,9.99,5.59,16.42,13.37,16.42c7.49,0,13.51-6.16,13.51-15.34V224.54z"/>
					<path d="M158.61,239.12v-2.27h17.74v2.27H158.61z"/>
					<path d="M182.52,253.59v-31.27h1.99v31.27H182.52z"/>
					<path d="M210.81,253.59c0-5.89,0-14.47,0-14.47c0-4.05-0.92-8-3.64-10.91c-2.62-2.92-6.22-3.57-10.02-3.57h-8.36v-2.27h8.17
						c4.43,0,8.56,0.86,11.67,4.27c3.16,3.4,4.23,7.62,4.23,12.48c0,0,0,8.58,0,14.47H210.81z"/>
					<path d="M238.23,248.79c-3.02,3.35-7.78,4.81-10.02,4.81v-2.11c1.56,0,6.03-1.35,8.65-4.27c2.62-2.92,3.5-5.83,3.5-9.99v-12.63
						h-23.34v-6.27h2v4.05h23.33v14.85C242.36,242.04,241.34,245.39,238.23,248.79z"/>
					<path d="M248.33,253.59v-31.27h1.99v31.27H248.33z"/>
					<path d="M271.03,253.92c-8.51,0-15.55-8.32-15.55-17.07v-14.52h1.89v13.77c0,8.42,6.08,15.72,13.66,15.72
						c7.63,0,13.61-7.24,13.61-15.66v-11.62H265.3v-2.21h21.24v13.82C286.54,245.01,279.74,253.92,271.03,253.92z"/>
					<path d="M306.71,254.35c-7.87,0-15.26-6.32-15.26-18.47v-13.5h30.62v14.58C322.07,248.03,314.59,254.35,306.71,254.35z
						 M320.22,224.54h-26.88v11.35c0,9.99,5.59,16.42,13.37,16.42c7.49,0,13.51-6.16,13.51-15.34V224.54z"/>
					<path d="M343.31,239.88v-17.55h2.04v17.55H343.31z"/>
					<path d="M371.6,248.79c-3.02,3.35-7.78,4.81-10.02,4.81v-2.11c1.56,0,6.03-1.35,8.65-4.27c2.62-2.92,3.5-5.83,3.5-9.99v-12.63
						h-23.33v-6.27h1.99v4.05h23.34v14.85C375.73,242.04,374.71,245.39,371.6,248.79z"/>
					<path d="M402.56,253.59c0-5.89,0-14.47,0-14.47c0-4.05-0.92-8-3.64-10.91c-2.63-2.92-6.23-3.57-10.01-3.57h-8.37v-2.27h8.17
						c4.42,0,8.55,0.86,11.67,4.27c3.16,3.4,4.23,7.62,4.23,12.48c0,0,0,8.58,0,14.47H402.56z"/>
					<path d="M409.76,253.59v-31.27h1.99v31.27H409.76z"/>
					<path d="M438.38,244.2l7.53,9.4h-2.28l-16.09-19.28c0,0-8.41,5.45-8.41,17.55v1.73h-1.9v-1.57c0-13.18,8.98-19.11,8.98-19.11
						l-8.55-10.54h2.53l16.92,20.36c0,0,7.44-7.34,7.44-15.77v-4.59h1.89v4.22C446.45,235.88,438.38,244.2,438.38,244.2z"/>
				</g>
				<path class="st0" d="M403.03,209.44c0-4.23,3.44-7.66,7.67-7.66c4.23,0,7.66,3.43,7.66,7.66c0,4.23-3.43,7.66-7.66,7.66
					C406.47,217.1,403.03,213.68,403.03,209.44z"/>
			</g>
		</g>
	</g>
</g>
</svg>
