<?xml version="1.0" encoding="utf-8"?>
<!-- Generator: Adobe Illustrator 24.0.1, SVG Export Plug-In . SVG Version: 6.00 Build 0)  -->
<svg version="1.1" id="Layer_1" xmlns="http://www.w3.org/2000/svg" xmlns:xlink="http://www.w3.org/1999/xlink" x="0px" y="0px"
	 viewBox="0 0 500 500" style="enable-background:new 0 0 500 500;" xml:space="preserve">
<style type="text/css">
	.st0{fill:#82171D;}
</style>
<g>
	<g>
		<g>
			<g>
				<path d="M199.08,244.02v-10.28c0-3.14-0.75-5.4-2.68-7.62c-2.03-2.1-3.92-2.6-6.68-2.6h-8.12v20.57h-4.78v-1.57h3.34v-20.62
					h9.57c3.2,0,5.33,0.65,7.64,3.06c2.34,2.56,3.17,5.12,3.17,8.76v10.28H199.08z"/>
				<path d="M219.36,244.02c0-4.17,0-10.25,0-10.25c0-2.87-0.65-5.66-2.58-7.73c-1.86-2.07-4.41-2.52-7.09-2.52h-5.92v-1.61h5.79
					c3.13,0,6.05,0.62,8.26,3.02c2.24,2.41,2.99,5.39,2.99,8.84c0,0,0,6.08,0,10.25H219.36z"/>
				<path d="M236.56,244.09c-7.81,0-12.15-7.88-12.15-14.19v-7.99h1.42v7.99c0,5.63,3.85,12.63,10.73,12.63
					c6.88,0,10.77-7,10.77-12.63v-7.99h1.41v7.99C248.75,236.22,244.38,244.09,236.56,244.09z M235.88,239.85v-17.94h1.41v17.94
					H235.88z"/>
				<path d="M263.48,244.02v-8.33l-9.09,8.33h-2.13l11.22-10.44c0-3.02-0.07-5.09-2.03-7.27c-1.79-2.06-3.82-2.83-6.37-2.83h-2.58
					v-1.57h2.58c2.99,0,5.3,0.92,7.46,3.25c2.21,2.53,2.41,5.05,2.35,8.61v10.25H263.48z"/>
				<path d="M277.42,244.02v-1.53h10.19v-9.41c0-5.39-3.75-9.56-8.61-9.56c-4.65,0-8.64,4.55-8.64,9.79v10.75h-1.44v-10.75
					c0-6.12,4.5-11.4,10.05-11.4c5.68,0,10.05,4.9,10.05,11.17v10.94H277.42z"/>
				<path d="M292.77,244.02v-22.15h1.41v22.15H292.77z"/>
				<path d="M309.46,247.34v-25.47h1.41v25.47H309.46z"/>
				<path d="M314.87,234.3v-12.43h1.45v12.43H314.87z"/>
				<path d="M335.07,223.48v20.54h-1.41v-20.54h-13.59v-1.61H338v1.61H335.07z"/>
				<path d="M372.72,244.02v-10.28c0-3.14-0.76-5.4-2.68-7.62c-2.03-2.1-3.93-2.6-6.68-2.6h-8.12v20.57h-4.79v-1.57h3.33v-20.62
					h9.57c3.2,0,5.33,0.65,7.64,3.06c2.34,2.56,3.16,5.12,3.16,8.76v10.28H372.72z"/>
				<path d="M387.01,244.02h-9.16v-1.49h9.16c5.68,0,8.57-4.56,8.57-9.57c0-4.93-2.82-9.48-9.02-9.48h-8.71v-1.57h8.71
					c6.68,0,10.46,5.32,10.46,11.05C397.02,238.73,393.44,244.02,387.01,244.02z"/>
				<path d="M415.13,244.02c0-4.17,0-10.25,0-10.25c0-2.87-0.66-5.66-2.58-7.73c-1.86-2.07-4.41-2.52-7.1-2.52h-5.92v-1.61h5.79
					c3.13,0,6.05,0.62,8.26,3.02c2.24,2.41,2.99,5.39,2.99,8.84c0,0,0,6.08,0,10.25H415.13z"/>
				<path d="M420.23,244.02v-22.15h1.41v22.15H420.23z"/>
				<path d="M435.65,244.02h-10.74v-1.49h4.24v-20.62h1.34v20.62h5.16c1.82,0,8.63-1.19,8.63-10.29v-10.33h1.35v9.95
					C445.63,242.53,438.4,244.02,435.65,244.02z"/>
			</g>
			<g>
				<g>
					<path d="M73.62,202.72c0-5.89,0-14.47,0-14.47c0-4.05-0.92-8-3.64-10.91c-2.62-2.92-6.22-3.57-10.01-3.57H51.6v-2.27h8.17
						c4.42,0,8.55,0.86,11.67,4.27c3.16,3.4,4.23,7.62,4.23,12.48c0,0,0,8.58,0,14.47H73.62z"/>
					<path d="M80.72,189v-17.55h2.04V189H80.72z"/>
					<path d="M102.15,202.83H88.44v-2.22h13.71c7.49,0,12.4-5.62,12.3-13.93c-0.1-7.94-6.46-12.91-13.51-12.91h-10.5v18.52H88.4
						V171.5h12.54c8.22,0,15.46,5.89,15.51,15.18C116.54,196.29,110.76,202.83,102.15,202.83z"/>
					<path d="M136.23,203.48c-7.88,0-15.26-6.32-15.26-18.47v-13.5h30.62v14.58C151.58,197.16,144.1,203.48,136.23,203.48z
						 M149.74,173.66h-26.88v11.35c0,9.99,5.59,16.42,13.37,16.42c7.49,0,13.51-6.16,13.51-15.34V173.66z"/>
					<path d="M157.23,188.25v-2.27h17.74v2.27H157.23z"/>
					<path d="M181.14,202.72v-31.27h1.99v31.27H181.14z"/>
					<path d="M209.43,202.72c0-5.89,0-14.47,0-14.47c0-4.05-0.92-8-3.64-10.91c-2.62-2.92-6.22-3.57-10.02-3.57h-8.36v-2.27h8.17
						c4.43,0,8.56,0.86,11.67,4.27c3.16,3.4,4.23,7.62,4.23,12.48c0,0,0,8.58,0,14.47H209.43z"/>
					<path d="M236.84,197.91c-3.02,3.35-7.78,4.81-10.02,4.81v-2.11c1.56,0,6.03-1.35,8.65-4.27c2.62-2.92,3.5-5.83,3.5-9.99v-12.63
						h-23.34v-6.27h2v4.05h23.33v14.85C240.97,191.17,239.95,194.51,236.84,197.91z"/>
					<path d="M246.95,202.72v-31.27h1.99v31.27H246.95z"/>
					<path d="M269.65,203.05c-8.51,0-15.55-8.32-15.55-17.07v-14.52h1.89v13.77c0,8.42,6.08,15.72,13.66,15.72
						c7.63,0,13.61-7.24,13.61-15.66v-11.62h-19.35v-2.21h21.24v13.82C285.15,194.13,278.36,203.05,269.65,203.05z"/>
					<path d="M305.33,203.48c-7.87,0-15.26-6.32-15.26-18.47v-13.5h30.62v14.58C320.69,197.16,313.2,203.48,305.33,203.48z
						 M318.84,173.66h-26.88v11.35c0,9.99,5.59,16.42,13.37,16.42c7.49,0,13.51-6.16,13.51-15.34V173.66z"/>
					<path d="M341.93,189v-17.55h2.04V189H341.93z"/>
					<path d="M370.22,197.91c-3.02,3.35-7.78,4.81-10.02,4.81v-2.11c1.56,0,6.03-1.35,8.65-4.27c2.62-2.92,3.5-5.83,3.5-9.99v-12.63
						h-23.33v-6.27h1.99v4.05h23.34v14.85C374.35,191.17,373.32,194.51,370.22,197.91z"/>
					<path d="M401.17,202.72c0-5.89,0-14.47,0-14.47c0-4.05-0.92-8-3.64-10.91c-2.63-2.92-6.23-3.57-10.01-3.57h-8.37v-2.27h8.17
						c4.42,0,8.55,0.86,11.67,4.27c3.16,3.4,4.23,7.62,4.23,12.48c0,0,0,8.58,0,14.47H401.17z"/>
					<path d="M408.37,202.72v-31.27h1.99v31.27H408.37z"/>
					<path d="M436.99,193.32l7.53,9.4h-2.28l-16.09-19.28c0,0-8.41,5.45-8.41,17.55v1.73h-1.9v-1.57c0-13.18,8.98-19.11,8.98-19.11
						l-8.55-10.54h2.53l16.92,20.36c0,0,7.44-7.34,7.44-15.77v-4.59h1.89v4.22C445.07,185.01,436.99,193.32,436.99,193.32z"/>
				</g>
				<path class="st0" d="M401.64,158.57c0-4.23,3.44-7.66,7.67-7.66c4.23,0,7.66,3.43,7.66,7.66c0,4.23-3.43,7.66-7.66,7.66
					C405.08,166.23,401.64,162.8,401.64,158.57z"/>
			</g>
		</g>
	</g>
	<g>
		<path d="M62.08,277.64c0-1.33-0.25-2.64-0.75-3.96h1.78c0.06,0.13,0.13,0.31,0.21,0.54c0.08,0.23,0.19,0.7,0.33,1.38
			s0.21,1.37,0.21,2.03v14.1h-1.79V277.64z"/>
		<path d="M69.81,286.75h-1.79v-13.08h1.79V286.75z"/>
		<path d="M73.91,282.32v-8.66h1.79v6.94l-1.42,1.72H73.91z"/>
		<path d="M78.45,273.53c1-0.05,1.9-0.07,2.7-0.07c0.79,0,1.46,0.05,1.98,0.14c0.53,0.09,1.02,0.24,1.48,0.44
			c0.46,0.2,0.85,0.46,1.16,0.78c0.67,0.68,1,1.62,1,2.8v9.13h-1.78v-9.15c0-1.8-1.28-2.71-3.85-2.71c-0.77,0-1.67,0.02-2.69,0.07
			V273.53z"/>
		<path d="M98.85,275.96c-0.24-0.32-0.57-0.59-0.97-0.79c-0.4-0.2-0.89-0.3-1.46-0.3c-0.57,0-1.06,0.03-1.49,0.1v-1.38
			c0.42-0.09,0.93-0.13,1.53-0.13s1.16,0.08,1.68,0.24c0.52,0.16,1,0.42,1.43,0.78c0.44,0.35,0.81,0.79,1.12,1.31
			c0.66,1.09,0.99,2.57,0.99,4.41c0,0.92-0.09,1.76-0.28,2.51c-0.19,0.75-0.44,1.39-0.77,1.91c-0.33,0.52-0.72,0.95-1.18,1.31
			c-0.46,0.35-0.95,0.61-1.48,0.78c-0.53,0.16-1.1,0.24-1.7,0.24c-0.6,0-1.17-0.08-1.7-0.24c-0.53-0.16-1.02-0.42-1.48-0.78
			c-0.46-0.36-0.85-0.79-1.18-1.31c-0.33-0.52-0.58-1.15-0.77-1.91c-0.19-0.75-0.28-1.59-0.28-2.51v-6.54h1.85v6.54
			c0,1.47,0.24,2.69,0.72,3.66c0.26,0.53,0.63,0.94,1.11,1.23c0.48,0.29,1.03,0.44,1.63,0.44c0.61,0,1.12-0.1,1.54-0.3
			c0.42-0.2,0.76-0.46,1.02-0.8c0.26-0.33,0.47-0.73,0.64-1.21c0.29-0.83,0.44-1.84,0.44-3.03c0-0.59-0.02-1.12-0.08-1.6
			c-0.05-0.48-0.15-0.96-0.3-1.44C99.29,276.69,99.1,276.29,98.85,275.96z"/>
		<path d="M106.97,286.75h-1.79v-13.08h1.79V286.75z"/>
		<path d="M113.31,274.82c-0.39,0-0.82,0.06-1.31,0.18v-1.33c0.57-0.14,1.21-0.21,1.92-0.21c2.24,0,3.35,1.16,3.35,3.48v6.61
			c0,0.55-0.03,1.09-0.1,1.62c-0.07,0.53-0.14,0.93-0.21,1.19l-0.11,0.39h-6.39v-1.31h4.79c0.14-0.51,0.21-1.14,0.21-1.89v-6.47
			c0-0.81-0.19-1.4-0.56-1.76C114.58,274.98,114.04,274.82,113.31,274.82z"/>
		<path d="M130,284.33l0.16,0.23c-0.18,0.67-0.45,1.45-0.8,2.34s-0.72,1.73-1.1,2.52h-1.34c0.21-0.75,0.42-1.62,0.63-2.61
			c0.22-0.95,0.39-1.78,0.49-2.49H130z"/>
		<path d="M134.25,286.89c-0.32,0-0.67-0.05-1.07-0.14v-1.39c0.52,0.07,0.81,0.1,0.87,0.1c1.03,0,1.54-0.57,1.54-1.72v-8.65
			l-1.52,0.13v-1.43c2-0.22,3.75-0.32,5.25-0.32c1.28,0,2.35,0.19,3.23,0.58c0.92,0.41,1.55,1.06,1.89,1.97
			c0.18,0.47,0.27,1.01,0.27,1.61v9.13h-1.8v-9.15c0-1.8-1.28-2.71-3.84-2.71c-0.32,0-0.88,0.02-1.7,0.06v8.55
			c0,1.07-0.26,1.9-0.77,2.49C136.08,286.59,135.3,286.89,134.25,286.89z"/>
		<path d="M147.61,273.53c1-0.05,1.9-0.07,2.7-0.07c0.79,0,1.46,0.05,1.98,0.14c0.53,0.09,1.02,0.24,1.48,0.44
			c0.46,0.2,0.85,0.46,1.16,0.78c0.67,0.68,1,1.62,1,2.8v9.13h-1.78v-9.15c0-1.8-1.28-2.71-3.85-2.71c-0.77,0-1.67,0.02-2.69,0.07
			V273.53z"/>
		<path d="M165.51,285.44c1.46,0,2.68-0.5,3.65-1.49c0.97-0.99,1.56-2.52,1.76-4.57l0.55-5.7h1.77l-0.53,5.7
			c-0.07,0.88-0.22,1.66-0.44,2.34c-0.22,0.68-0.45,1.23-0.69,1.66c-0.24,0.43-0.55,0.86-0.94,1.28c-0.39,0.43-0.83,0.79-1.32,1.08
			s-1.08,0.54-1.79,0.72c-0.71,0.19-1.48,0.28-2.32,0.28h-4.6l-1.15-13.08h1.81l0.65,7.31l1.43-0.45c1.1-0.34,1.74-1.28,1.9-2.82
			l0.42-4.05h1.78l-0.35,3.44c-0.05,0.46-0.12,0.87-0.19,1.24c-0.08,0.37-0.21,0.75-0.39,1.15c-0.18,0.4-0.4,0.75-0.65,1.04
			c-0.25,0.3-0.59,0.57-1,0.82c-0.42,0.25-0.9,0.44-1.44,0.57l-1.4,0.35l0.28,3.15H165.51z"/>
		<path d="M178.59,274.82c-0.39,0-0.82,0.06-1.31,0.18v-1.33c0.57-0.14,1.21-0.21,1.92-0.21c2.24,0,3.35,1.16,3.35,3.48v9.81h-1.47
			l-0.2-2.21h-0.09c-0.04,0.08-0.12,0.22-0.25,0.43s-0.26,0.38-0.39,0.53c-0.13,0.15-0.3,0.32-0.5,0.5
			c-0.21,0.18-0.42,0.34-0.65,0.48c-0.23,0.13-0.49,0.25-0.8,0.34c-0.3,0.09-0.62,0.14-0.94,0.14c-0.67,0-1.18-0.04-1.5-0.13
			l0.26-1.54c0.3,0.09,0.79,0.13,1.47,0.13c0.5,0,1.04-0.2,1.6-0.59c0.67-0.48,1.15-1.12,1.44-1.93c0.17-0.47,0.25-0.97,0.25-1.52
			v-4.29c0-0.82-0.19-1.41-0.57-1.76C179.85,274.98,179.31,274.82,178.59,274.82z"/>
		<path d="M192.49,273.46c1.35,0,2.37,0.39,3.05,1.16c0.68,0.77,1.02,1.83,1.02,3.18v8.95h-4.73v-1.31h2.95v-7.57
			c0-2-0.97-2.99-2.9-2.99c-0.34,0-0.67,0.06-0.99,0.17c-0.33,0.11-0.6,0.25-0.82,0.4c-0.47,0.34-0.81,0.64-1,0.89l-0.13,0.16
			l-1.02,10.24h-1.79l1.01-10.06c0-0.03,0-0.1,0-0.22c0-0.12-0.05-0.43-0.15-0.93c-0.1-0.5-0.23-0.91-0.38-1.24l-0.28-0.63h1.79
			c0.19,0.3,0.36,0.76,0.5,1.38h0.08c0.37-0.42,0.82-0.76,1.34-1.03c0.27-0.14,0.63-0.26,1.08-0.38
			C191.53,273.52,192,273.46,192.49,273.46z"/>
		<path d="M209.27,284.33l0.16,0.23c-0.18,0.67-0.45,1.45-0.8,2.34s-0.72,1.73-1.1,2.52h-1.34c0.21-0.75,0.42-1.62,0.63-2.61
			c0.22-0.95,0.39-1.78,0.49-2.49H209.27z"/>
		<path d="M213.42,286.75v-13.01c1.25-0.18,2.84-0.27,4.75-0.27c3.59,0,5.39,1.19,5.39,3.57v9.72H213.42z M221.77,285.44v-8.16
			c0-0.43-0.08-0.79-0.23-1.09s-0.34-0.53-0.56-0.7s-0.52-0.29-0.89-0.39c-0.37-0.09-0.71-0.15-1.02-0.17s-0.68-0.04-1.1-0.04
			c-0.87,0-1.67,0.03-2.38,0.08l-0.4,0.03v10.44H221.77z"/>
		<path d="M227.59,282.32v-8.66h1.79v6.94l-1.42,1.72H227.59z"/>
		<path d="M241.31,275.96c-0.24-0.32-0.57-0.59-0.97-0.79c-0.4-0.2-0.89-0.3-1.46-0.3c-0.57,0-1.06,0.03-1.49,0.1v-1.38
			c0.42-0.09,0.93-0.13,1.53-0.13s1.16,0.08,1.68,0.24c0.52,0.16,1,0.42,1.43,0.78c0.44,0.35,0.81,0.79,1.12,1.31
			c0.66,1.09,0.99,2.57,0.99,4.41c0,0.92-0.09,1.76-0.28,2.51c-0.19,0.75-0.44,1.39-0.77,1.91c-0.33,0.52-0.72,0.95-1.18,1.31
			c-0.46,0.35-0.95,0.61-1.48,0.78c-0.53,0.16-1.1,0.24-1.7,0.24c-0.6,0-1.17-0.08-1.7-0.24c-0.53-0.16-1.02-0.42-1.48-0.78
			c-0.46-0.36-0.85-0.79-1.18-1.31c-0.33-0.52-0.58-1.15-0.77-1.91c-0.19-0.75-0.28-1.59-0.28-2.51v-6.54h1.85v6.54
			c0,1.47,0.24,2.69,0.72,3.66c0.26,0.53,0.63,0.94,1.11,1.23c0.48,0.29,1.03,0.44,1.63,0.44c0.61,0,1.12-0.1,1.54-0.3
			c0.42-0.2,0.76-0.46,1.02-0.8c0.26-0.33,0.47-0.73,0.64-1.21c0.29-0.83,0.44-1.84,0.44-3.03c0-0.59-0.02-1.12-0.08-1.6
			c-0.05-0.48-0.15-0.96-0.3-1.44C241.75,276.69,241.55,276.29,241.31,275.96z"/>
		<path d="M246.91,278.14c0-0.74,0.15-1.42,0.46-2.03s0.71-1.1,1.21-1.48c0.5-0.38,1.06-0.67,1.67-0.87c0.61-0.2,1.23-0.3,1.85-0.3
			c0.62,0,1.2,0.08,1.73,0.24c0.53,0.16,1.03,0.42,1.48,0.78c0.46,0.35,0.85,0.79,1.18,1.31c0.33,0.52,0.58,1.15,0.77,1.91
			s0.28,1.59,0.28,2.51c0,0.92-0.09,1.76-0.28,2.51s-0.44,1.39-0.77,1.91c-0.33,0.52-0.72,0.96-1.18,1.31
			c-0.88,0.68-1.94,1.01-3.18,1.01c-1.22,0-2.39-0.07-3.5-0.2l-0.54-0.07v-1.45c0.01,0.01,0.18,0.03,0.53,0.08
			c1.13,0.16,2.3,0.23,3.5,0.23c0.54,0,1.03-0.1,1.45-0.3s0.76-0.46,1.03-0.8c0.26-0.33,0.48-0.73,0.65-1.21
			c0.29-0.83,0.44-1.84,0.44-3.03c0-1.47-0.24-2.69-0.72-3.66c-0.26-0.53-0.63-0.94-1.11-1.23c-0.48-0.29-1.02-0.44-1.62-0.44
			c-0.6,0-1.11,0.07-1.53,0.21s-0.77,0.32-1.03,0.54c-0.26,0.22-0.48,0.47-0.65,0.77c-0.32,0.54-0.48,1.13-0.48,1.75
			c0,0.91,0.22,1.59,0.65,2.06s1.12,0.78,2.06,0.94l0.47,0.08l-0.29,1.25l-0.41-0.05c-1.25-0.16-2.26-0.6-3-1.32
			S246.91,279.38,246.91,278.14z"/>
		<path d="M266.46,285.44c1.46,0,2.68-0.5,3.65-1.49c0.97-0.99,1.56-2.52,1.76-4.57l0.55-5.7h1.77l-0.53,5.7
			c-0.07,0.88-0.22,1.66-0.44,2.34c-0.22,0.68-0.45,1.23-0.69,1.66c-0.24,0.43-0.55,0.86-0.94,1.28c-0.39,0.43-0.83,0.79-1.32,1.08
			s-1.08,0.54-1.79,0.72c-0.71,0.19-1.48,0.28-2.32,0.28h-4.6l-1.15-13.08h1.81l0.65,7.31l1.43-0.45c1.1-0.34,1.74-1.28,1.9-2.82
			l0.42-4.05h1.78l-0.35,3.44c-0.05,0.46-0.12,0.87-0.19,1.24c-0.08,0.37-0.21,0.75-0.39,1.15c-0.18,0.4-0.4,0.75-0.65,1.04
			c-0.25,0.3-0.59,0.57-1,0.82c-0.42,0.25-0.9,0.44-1.44,0.57l-1.4,0.35l0.28,3.15H266.46z"/>
		<path d="M283.43,273.46c1.35,0,2.37,0.39,3.05,1.16c0.68,0.77,1.02,1.83,1.02,3.18v8.95h-4.73v-1.31h2.95v-7.57
			c0-2-0.97-2.99-2.9-2.99c-0.34,0-0.67,0.06-0.99,0.17c-0.33,0.11-0.6,0.25-0.82,0.4c-0.47,0.34-0.81,0.64-1,0.89l-0.13,0.16
			l-1.02,10.24h-1.79l1.01-10.06c0-0.03,0-0.1,0-0.22c0-0.12-0.05-0.43-0.15-0.93c-0.1-0.5-0.23-0.91-0.38-1.24l-0.28-0.63h1.79
			c0.19,0.3,0.36,0.76,0.5,1.38h0.08c0.37-0.42,0.82-0.76,1.34-1.03c0.27-0.14,0.63-0.26,1.08-0.38
			C282.48,273.52,282.95,273.46,283.43,273.46z"/>
		<path d="M291.04,273.61c1.15-0.1,2.49-0.15,4.03-0.15s2.68,0.32,3.42,0.95c0.74,0.63,1.11,1.7,1.11,3.21v7.82h1.58v1.31h-10.14
			v-1.31h6.77v-7.84c0-1.04-0.25-1.75-0.75-2.13s-1.27-0.57-2.31-0.57c-1.11,0-2.17,0.04-3.17,0.11l-0.55,0.04V273.61z"/>
		<path d="M310.83,286.89c-0.32,0-0.67-0.05-1.07-0.14v-1.39c0.52,0.07,0.81,0.1,0.87,0.1c1.03,0,1.54-0.57,1.54-1.72v-8.65
			l-1.52,0.13v-1.43c2-0.22,3.75-0.32,5.25-0.32c1.28,0,2.35,0.19,3.23,0.58c0.92,0.41,1.55,1.06,1.89,1.97
			c0.18,0.47,0.27,1.01,0.27,1.61v9.13h-1.8v-9.15c0-1.8-1.28-2.71-3.84-2.71c-0.32,0-0.88,0.02-1.7,0.06v8.55
			c0,1.07-0.26,1.9-0.77,2.49C312.66,286.59,311.87,286.89,310.83,286.89z"/>
		<path d="M325.8,273.6c0.53-0.09,1.09-0.14,1.69-0.14s1.16,0.07,1.67,0.2c0.51,0.13,0.94,0.32,1.3,0.54
			c0.35,0.23,0.67,0.5,0.95,0.81c0.28,0.31,0.5,0.64,0.67,0.97c0.17,0.33,0.31,0.69,0.41,1.07c0.19,0.65,0.29,1.32,0.29,2.02v2.22
			c0,0.41-0.04,0.84-0.12,1.31s-0.18,0.87-0.31,1.21c-0.12,0.33-0.32,0.71-0.59,1.11s-0.58,0.75-0.95,1.02s-0.84,0.51-1.42,0.71
			c-0.59,0.19-1.21,0.29-1.86,0.29s-1.23-0.03-1.73-0.09c-0.5-0.06-0.85-0.12-1.06-0.19l-0.3-0.09v-1.52
			c0.94,0.28,1.97,0.43,3.08,0.43c0.44,0,0.83-0.06,1.19-0.18c0.36-0.12,0.65-0.27,0.88-0.45c0.23-0.18,0.44-0.41,0.62-0.67
			c0.18-0.26,0.32-0.52,0.41-0.77c0.09-0.25,0.17-0.52,0.23-0.8c0.09-0.43,0.14-0.87,0.14-1.34v-1.99c0-0.86-0.1-1.58-0.3-2.15
			c-0.09-0.25-0.22-0.52-0.39-0.8c-0.18-0.28-0.38-0.52-0.62-0.71s-0.54-0.35-0.92-0.48c-0.38-0.13-0.83-0.19-1.35-0.19
			c-0.53,0-1.04,0.04-1.55,0.13c-0.51,0.08-0.87,0.17-1.09,0.26l-0.32,0.13v-1.5c0.08-0.04,0.19-0.09,0.34-0.14
			S325.27,273.7,325.8,273.6z"/>
		<path d="M342.04,273.46c1.35,0,2.37,0.39,3.05,1.16c0.68,0.77,1.02,1.83,1.02,3.18v8.95h-4.73v-1.31h2.95v-7.57
			c0-2-0.97-2.99-2.9-2.99c-0.34,0-0.67,0.06-0.99,0.17c-0.33,0.11-0.6,0.25-0.82,0.4c-0.47,0.34-0.81,0.64-1,0.89l-0.13,0.16
			l-1.02,10.24h-1.79l1.01-10.06c0-0.03,0-0.1,0-0.22c0-0.12-0.05-0.43-0.15-0.93c-0.1-0.5-0.23-0.91-0.38-1.24l-0.28-0.63h1.79
			c0.19,0.3,0.36,0.76,0.5,1.38h0.08c0.37-0.42,0.82-0.76,1.34-1.03c0.27-0.14,0.63-0.26,1.08-0.38
			C341.09,273.52,341.55,273.46,342.04,273.46z"/>
		<path d="M354.95,273.46c1.66,0,2.98,0.56,3.95,1.67c0.97,1.12,1.46,2.81,1.46,5.07c0,0.92-0.09,1.76-0.28,2.51
			s-0.44,1.39-0.77,1.91c-0.33,0.52-0.72,0.95-1.18,1.31c-0.46,0.35-0.95,0.61-1.48,0.78c-0.53,0.16-1.1,0.24-1.7,0.24
			c-0.6,0-1.17-0.08-1.7-0.24c-0.53-0.16-1.03-0.42-1.48-0.78c-0.46-0.36-0.85-0.79-1.18-1.31c-0.33-0.52-0.58-1.15-0.77-1.91
			s-0.28-1.59-0.28-2.51c0-1.26,0.15-2.33,0.46-3.21c0.3-0.88,0.68-1.55,1.13-2.01l-1.38,0.08v-1.43
			C351.27,273.52,353,273.46,354.95,273.46z M351.81,277.26c-0.28,0.99-0.41,1.91-0.41,2.76c0,0.85,0.06,1.57,0.17,2.17
			c0.11,0.6,0.3,1.16,0.55,1.68c0.26,0.52,0.63,0.93,1.11,1.23c0.48,0.29,1.06,0.44,1.73,0.44s1.25-0.15,1.73-0.44
			c0.48-0.29,0.85-0.7,1.11-1.23c0.48-0.97,0.72-2.19,0.72-3.66c0-1.95-0.34-3.35-1.03-4.22c-0.26-0.32-0.6-0.59-1.03-0.79
			c-0.43-0.2-0.93-0.3-1.49-0.3l-1.92,0.02C352.49,275.49,352.08,276.27,351.81,277.26z"/>
		<path d="M365.64,286.75h-1.79v-13.08h1.79V286.75z"/>
		<path d="M375.64,273.46c1.35,0,2.37,0.39,3.05,1.16c0.68,0.77,1.02,1.83,1.02,3.18v8.95h-4.73v-1.31h2.95v-7.57
			c0-2-0.97-2.99-2.9-2.99c-0.34,0-0.67,0.06-0.99,0.17c-0.33,0.11-0.6,0.25-0.82,0.4c-0.47,0.34-0.81,0.64-1,0.89l-0.13,0.16
			l-1.02,10.24h-1.79l1.01-10.06c0-0.03,0-0.1,0-0.22c0-0.12-0.05-0.43-0.15-0.93c-0.1-0.5-0.23-0.91-0.38-1.24l-0.28-0.63h1.79
			c0.19,0.3,0.36,0.76,0.5,1.38h0.08c0.37-0.42,0.82-0.76,1.34-1.03c0.27-0.14,0.63-0.26,1.08-0.38
			C374.69,273.52,375.15,273.46,375.64,273.46z"/>
		<path d="M385.66,286.75h-1.79v-13.08h1.79V286.75z"/>
		<path d="M396.51,286.89c-0.32,0-0.67-0.05-1.07-0.14v-1.39c0.52,0.07,0.81,0.1,0.87,0.1c1.03,0,1.54-0.57,1.54-1.72v-8.65
			l-1.52,0.13v-1.43c2-0.22,3.75-0.32,5.25-0.32c1.28,0,2.35,0.19,3.23,0.58c0.92,0.41,1.55,1.06,1.89,1.97
			c0.18,0.47,0.27,1.01,0.27,1.61v9.13h-1.8v-9.15c0-1.8-1.28-2.71-3.84-2.71c-0.32,0-0.88,0.02-1.7,0.06v8.55
			c0,1.07-0.26,1.9-0.77,2.49C398.34,286.59,397.55,286.89,396.51,286.89z"/>
		<path d="M409.87,273.53c1-0.05,1.9-0.07,2.7-0.07c0.79,0,1.46,0.05,1.98,0.14c0.53,0.09,1.02,0.24,1.48,0.44
			c0.46,0.2,0.85,0.46,1.16,0.78c0.67,0.68,1,1.62,1,2.8v9.13h-1.78v-9.15c0-1.8-1.28-2.71-3.85-2.71c-0.77,0-1.67,0.02-2.69,0.07
			V273.53z"/>
		<path d="M424.22,274.82c-0.39,0-0.82,0.06-1.31,0.18v-1.33c0.57-0.14,1.21-0.21,1.92-0.21c2.24,0,3.35,1.16,3.35,3.48v9.81h-1.47
			l-0.2-2.21h-0.09c-0.04,0.08-0.12,0.22-0.25,0.43s-0.26,0.38-0.39,0.53c-0.13,0.15-0.3,0.32-0.5,0.5
			c-0.21,0.18-0.42,0.34-0.65,0.48c-0.23,0.13-0.49,0.25-0.8,0.34c-0.3,0.09-0.62,0.14-0.94,0.14c-0.67,0-1.18-0.04-1.5-0.13
			l0.26-1.54c0.3,0.09,0.79,0.13,1.47,0.13c0.5,0,1.04-0.2,1.6-0.59c0.67-0.48,1.15-1.12,1.44-1.93c0.17-0.47,0.25-0.97,0.25-1.52
			v-4.29c0-0.82-0.19-1.41-0.57-1.76C425.48,274.98,424.94,274.82,424.22,274.82z"/>
		<path d="M434.14,286.75h-1.79v-13.08h1.79V286.75z"/>
		<path d="M437.75,273.61c1.15-0.1,2.49-0.15,4.03-0.15s2.68,0.32,3.42,0.95c0.74,0.63,1.11,1.7,1.11,3.21v7.82h1.58v1.31h-10.14
			v-1.31h6.77v-7.84c0-1.04-0.25-1.75-0.75-2.13s-1.27-0.57-2.31-0.57c-1.11,0-2.17,0.04-3.17,0.11l-0.55,0.04V273.61z"/>
		<path d="M149.75,313.98c0-0.46,0.11-0.8,0.33-1.04c0.22-0.24,0.53-0.35,0.95-0.35s0.73,0.12,0.97,0.35
			c0.23,0.24,0.35,0.58,0.35,1.02c0,0.44-0.12,0.78-0.35,1.02c-0.23,0.24-0.55,0.35-0.95,0.35s-0.72-0.11-0.95-0.33
			C149.87,314.77,149.75,314.43,149.75,313.98z"/>
		<path d="M156.59,301.89c0.53-0.09,1.09-0.14,1.69-0.14c0.6,0,1.16,0.07,1.67,0.2c0.51,0.13,0.94,0.32,1.3,0.54
			c0.35,0.23,0.67,0.5,0.95,0.81c0.28,0.31,0.5,0.64,0.67,0.97c0.17,0.33,0.31,0.69,0.42,1.07c0.19,0.65,0.28,1.32,0.28,2.02v12.66
			h-1.78v-12.46c0-0.86-0.1-1.58-0.3-2.15c-0.09-0.25-0.22-0.52-0.39-0.8c-0.18-0.28-0.38-0.52-0.62-0.71
			c-0.24-0.19-0.54-0.35-0.92-0.48c-0.38-0.13-0.83-0.19-1.35-0.19c-0.53,0-1.04,0.04-1.55,0.13c-0.51,0.08-0.87,0.17-1.08,0.26
			l-0.32,0.13v-1.5c0.08-0.04,0.19-0.09,0.34-0.14S156.07,301.99,156.59,301.89z"/>
		<path d="M173.14,313.73c1.46,0,2.68-0.5,3.65-1.49c0.97-0.99,1.56-2.52,1.76-4.57l0.55-5.7h1.77l-0.53,5.7
			c-0.07,0.88-0.22,1.66-0.44,2.34c-0.22,0.68-0.45,1.23-0.69,1.66c-0.24,0.43-0.55,0.86-0.94,1.28c-0.39,0.43-0.83,0.79-1.32,1.08
			s-1.08,0.54-1.79,0.72c-0.71,0.19-1.48,0.28-2.32,0.28h-4.6l-1.15-13.08h1.81l0.65,7.31l1.43-0.45c1.1-0.34,1.74-1.28,1.9-2.82
			l0.42-4.05h1.78l-0.35,3.44c-0.05,0.46-0.12,0.87-0.19,1.24c-0.08,0.37-0.21,0.75-0.39,1.15c-0.18,0.4-0.4,0.75-0.65,1.04
			c-0.25,0.3-0.59,0.57-1,0.82c-0.42,0.25-0.9,0.44-1.44,0.57l-1.4,0.35l0.28,3.15H173.14z"/>
		<path d="M190.11,301.75c1.35,0,2.37,0.39,3.05,1.16c0.68,0.77,1.02,1.83,1.02,3.18v8.95h-4.73v-1.31h2.95v-7.57
			c0-2-0.97-2.99-2.9-2.99c-0.34,0-0.67,0.06-0.99,0.17c-0.33,0.11-0.6,0.25-0.82,0.4c-0.47,0.34-0.81,0.64-1,0.89l-0.13,0.16
			l-1.02,10.24h-1.79l1.01-10.06c0-0.03,0-0.1,0-0.22c0-0.12-0.05-0.43-0.15-0.93c-0.1-0.5-0.23-0.91-0.38-1.24l-0.28-0.63h1.79
			c0.19,0.3,0.36,0.76,0.5,1.38h0.08c0.37-0.42,0.82-0.76,1.34-1.03c0.27-0.14,0.63-0.26,1.08-0.38
			C189.16,301.81,189.63,301.75,190.11,301.75z"/>
		<path d="M198.45,315.18c-0.32,0-0.67-0.05-1.07-0.14v-1.39c0.52,0.07,0.81,0.1,0.87,0.1c1.03,0,1.54-0.57,1.54-1.72v-8.65
			l-1.52,0.13v-1.43c2-0.22,3.75-0.32,5.25-0.32c1.28,0,2.35,0.19,3.23,0.58c0.92,0.41,1.55,1.06,1.89,1.97
			c0.18,0.47,0.27,1.01,0.27,1.61v9.13h-1.8v-9.15c0-1.8-1.28-2.71-3.84-2.71c-0.32,0-0.88,0.02-1.7,0.06v8.55
			c0,1.07-0.26,1.9-0.77,2.49C200.28,314.88,199.5,315.18,198.45,315.18z"/>
		<path d="M218.83,301.75c1.35,0,2.37,0.39,3.05,1.16c0.68,0.77,1.02,1.83,1.02,3.18v8.95h-4.73v-1.31h2.95v-7.57
			c0-2-0.97-2.99-2.9-2.99c-0.34,0-0.67,0.06-0.99,0.17c-0.33,0.11-0.6,0.25-0.82,0.4c-0.47,0.34-0.81,0.64-1,0.89l-0.13,0.16
			l-1.02,10.24h-1.79l1.01-10.06c0-0.03,0-0.1,0-0.22c0-0.12-0.05-0.43-0.15-0.93c-0.1-0.5-0.23-0.91-0.38-1.24l-0.28-0.63h1.79
			c0.19,0.3,0.36,0.76,0.5,1.38h0.08c0.37-0.42,0.82-0.76,1.34-1.03c0.27-0.14,0.63-0.26,1.08-0.38
			C217.88,301.81,218.35,301.75,218.83,301.75z"/>
		<path d="M233.58,315.04V301.9c1.67-0.1,3.25-0.15,4.75-0.15c1.28,0,2.35,0.19,3.23,0.58c0.92,0.41,1.55,1.06,1.89,1.97
			c0.18,0.47,0.27,1.01,0.27,1.61v9.13h-1.78v-9.15c0-1.8-1.28-2.71-3.85-2.71l-2.72,0.09v11.76H233.58z"/>
		<path d="M248.23,301.89c0.53-0.09,1.09-0.14,1.69-0.14s1.16,0.07,1.67,0.2c0.51,0.13,0.94,0.32,1.3,0.54
			c0.35,0.23,0.67,0.5,0.95,0.81c0.28,0.31,0.5,0.64,0.67,0.97c0.17,0.33,0.31,0.69,0.41,1.07c0.19,0.65,0.29,1.32,0.29,2.02v2.22
			c0,0.41-0.04,0.84-0.12,1.31s-0.18,0.87-0.31,1.21c-0.12,0.33-0.32,0.71-0.59,1.11s-0.58,0.75-0.95,1.02s-0.84,0.51-1.42,0.71
			c-0.59,0.19-1.21,0.29-1.86,0.29s-1.23-0.03-1.73-0.09c-0.5-0.06-0.85-0.12-1.06-0.19l-0.3-0.09v-1.52
			c0.94,0.28,1.97,0.43,3.08,0.43c0.44,0,0.83-0.06,1.19-0.18c0.36-0.12,0.65-0.27,0.88-0.45c0.23-0.18,0.44-0.41,0.62-0.67
			c0.18-0.26,0.32-0.52,0.41-0.77c0.09-0.25,0.17-0.52,0.23-0.8c0.09-0.43,0.14-0.87,0.14-1.34v-1.99c0-0.86-0.1-1.58-0.3-2.15
			c-0.09-0.25-0.22-0.52-0.39-0.8c-0.18-0.28-0.38-0.52-0.62-0.71s-0.54-0.35-0.92-0.48c-0.38-0.13-0.83-0.19-1.35-0.19
			c-0.53,0-1.04,0.04-1.55,0.13c-0.51,0.08-0.87,0.17-1.09,0.26l-0.32,0.13v-1.5c0.08-0.04,0.19-0.09,0.34-0.14
			S247.71,301.99,248.23,301.89z"/>
		<path d="M265.09,310.62v-8.66h1.79v6.94l-1.42,1.72H265.09z"/>
		<path d="M272.68,315.04h-1.79v-13.08h1.79V315.04z"/>
		<path d="M276.18,306.43c0-0.74,0.15-1.42,0.46-2.03s0.71-1.1,1.21-1.48c0.5-0.38,1.06-0.67,1.67-0.87c0.61-0.2,1.23-0.3,1.85-0.3
			c0.62,0,1.2,0.08,1.73,0.24c0.53,0.16,1.03,0.42,1.48,0.78c0.46,0.35,0.85,0.79,1.18,1.31c0.33,0.52,0.58,1.15,0.77,1.91
			s0.28,1.59,0.28,2.51c0,0.92-0.09,1.76-0.28,2.51s-0.44,1.39-0.77,1.91c-0.33,0.52-0.72,0.96-1.18,1.31
			c-0.88,0.68-1.94,1.01-3.18,1.01c-1.22,0-2.39-0.07-3.5-0.2l-0.54-0.07v-1.45c0.01,0.01,0.18,0.03,0.53,0.08
			c1.13,0.16,2.3,0.23,3.5,0.23c0.54,0,1.03-0.1,1.45-0.3s0.76-0.46,1.03-0.8c0.26-0.33,0.48-0.73,0.65-1.21
			c0.29-0.83,0.44-1.84,0.44-3.03c0-1.47-0.24-2.69-0.72-3.66c-0.26-0.53-0.63-0.94-1.11-1.23c-0.48-0.29-1.02-0.44-1.62-0.44
			c-0.6,0-1.11,0.07-1.53,0.21s-0.77,0.32-1.03,0.54c-0.26,0.22-0.48,0.47-0.65,0.77c-0.32,0.54-0.48,1.13-0.48,1.75
			c0,0.91,0.22,1.59,0.65,2.06s1.12,0.78,2.06,0.94l0.47,0.08l-0.29,1.25l-0.41-0.05c-1.25-0.16-2.26-0.6-3-1.32
			S276.18,307.67,276.18,306.43z"/>
		<path d="M290.17,310.62v-8.66h1.79v6.94l-1.42,1.72H290.17z"/>
		<path d="M295.35,301.9c1.15-0.1,2.49-0.15,4.03-0.15s2.68,0.32,3.42,0.95c0.74,0.63,1.11,1.7,1.11,3.21v7.82h1.58v1.31h-10.14
			v-1.31h6.77v-7.84c0-1.04-0.25-1.75-0.75-2.13s-1.27-0.57-2.31-0.57c-1.11,0-2.17,0.04-3.17,0.11l-0.55,0.04V301.9z"/>
		<path d="M315.85,301.95h7.3v1.31l-1.86,6.69l-1.12,5.08h-1.81l1.12-5.08l1.88-6.69h-7.3v-3.99h1.78V301.95z"/>
		<path d="M325.57,306.43c0-0.74,0.15-1.42,0.46-2.03s0.71-1.1,1.21-1.48c0.5-0.38,1.06-0.67,1.67-0.87c0.61-0.2,1.23-0.3,1.85-0.3
			c0.62,0,1.2,0.08,1.73,0.24c0.53,0.16,1.03,0.42,1.48,0.78c0.46,0.35,0.85,0.79,1.18,1.31c0.33,0.52,0.58,1.15,0.77,1.91
			s0.28,1.59,0.28,2.51c0,0.92-0.09,1.76-0.28,2.51s-0.44,1.39-0.77,1.91c-0.33,0.52-0.72,0.96-1.18,1.31
			c-0.88,0.68-1.94,1.01-3.18,1.01c-1.22,0-2.39-0.07-3.5-0.2l-0.54-0.07v-1.45c0.01,0.01,0.18,0.03,0.53,0.08
			c1.13,0.16,2.3,0.23,3.5,0.23c0.54,0,1.03-0.1,1.45-0.3s0.76-0.46,1.03-0.8c0.26-0.33,0.48-0.73,0.65-1.21
			c0.29-0.83,0.44-1.84,0.44-3.03c0-1.47-0.24-2.69-0.72-3.66c-0.26-0.53-0.63-0.94-1.11-1.23c-0.48-0.29-1.02-0.44-1.62-0.44
			c-0.6,0-1.11,0.07-1.53,0.21s-0.77,0.32-1.03,0.54c-0.26,0.22-0.48,0.47-0.65,0.77c-0.32,0.54-0.48,1.13-0.48,1.75
			c0,0.91,0.22,1.59,0.65,2.06s1.12,0.78,2.06,0.94l0.47,0.08l-0.29,1.25l-0.41-0.05c-1.25-0.16-2.26-0.6-3-1.32
			S325.57,307.67,325.57,306.43z"/>
		<path d="M347.63,304.26c-0.24-0.32-0.57-0.59-0.97-0.79c-0.4-0.2-0.89-0.3-1.46-0.3c-0.57,0-1.06,0.03-1.49,0.1v-1.38
			c0.42-0.09,0.93-0.13,1.53-0.13s1.16,0.08,1.68,0.24c0.52,0.16,1,0.42,1.43,0.78c0.44,0.35,0.81,0.79,1.12,1.31
			c0.66,1.09,0.99,2.57,0.99,4.41c0,0.92-0.09,1.76-0.28,2.51c-0.19,0.75-0.44,1.39-0.77,1.91c-0.33,0.52-0.72,0.95-1.18,1.31
			c-0.46,0.35-0.95,0.61-1.48,0.78c-0.53,0.16-1.1,0.24-1.7,0.24c-0.6,0-1.17-0.08-1.7-0.24c-0.53-0.16-1.02-0.42-1.48-0.78
			c-0.46-0.36-0.85-0.79-1.18-1.31c-0.33-0.52-0.58-1.15-0.77-1.91c-0.19-0.75-0.28-1.59-0.28-2.51v-6.54h1.85v6.54
			c0,1.47,0.24,2.69,0.72,3.66c0.26,0.53,0.63,0.94,1.11,1.23c0.48,0.29,1.03,0.44,1.63,0.44c0.61,0,1.12-0.1,1.54-0.3
			c0.42-0.2,0.76-0.46,1.02-0.8c0.26-0.33,0.47-0.73,0.64-1.21c0.29-0.83,0.44-1.84,0.44-3.03c0-0.59-0.02-1.12-0.08-1.6
			c-0.05-0.48-0.15-0.96-0.3-1.44C348.07,304.98,347.87,304.58,347.63,304.26z"/>
		<path d="M354.77,301.95h7.3v1.31l-1.86,6.69l-1.12,5.08h-1.81l1.12-5.08l1.88-6.69h-7.3v-3.99h1.78V301.95z"/>
		<path d="M371.85,315.18c-0.32,0-0.67-0.05-1.07-0.14v-1.39c0.52,0.07,0.81,0.1,0.87,0.1c1.03,0,1.54-0.57,1.54-1.72v-8.65
			l-1.52,0.13v-1.43c2-0.22,3.75-0.32,5.25-0.32c1.28,0,2.35,0.19,3.23,0.58c0.92,0.41,1.55,1.06,1.89,1.97
			c0.18,0.47,0.27,1.01,0.27,1.61v9.13h-1.8v-9.15c0-1.8-1.28-2.71-3.84-2.71c-0.32,0-0.88,0.02-1.7,0.06v8.55
			c0,1.07-0.26,1.9-0.77,2.49C373.68,314.88,372.9,315.18,371.85,315.18z"/>
		<path d="M386.82,301.89c0.53-0.09,1.09-0.14,1.69-0.14s1.16,0.07,1.67,0.2c0.51,0.13,0.94,0.32,1.3,0.54
			c0.35,0.23,0.67,0.5,0.95,0.81c0.28,0.31,0.5,0.64,0.67,0.97c0.17,0.33,0.31,0.69,0.41,1.07c0.19,0.65,0.29,1.32,0.29,2.02v2.22
			c0,0.41-0.04,0.84-0.12,1.31s-0.18,0.87-0.31,1.21c-0.12,0.33-0.32,0.71-0.59,1.11s-0.58,0.75-0.95,1.02s-0.84,0.51-1.42,0.71
			c-0.59,0.19-1.21,0.29-1.86,0.29s-1.23-0.03-1.73-0.09c-0.5-0.06-0.85-0.12-1.06-0.19l-0.3-0.09v-1.52
			c0.94,0.28,1.97,0.43,3.08,0.43c0.44,0,0.83-0.06,1.19-0.18c0.36-0.12,0.65-0.27,0.88-0.45c0.23-0.18,0.44-0.41,0.62-0.67
			c0.18-0.26,0.32-0.52,0.41-0.77c0.09-0.25,0.17-0.52,0.23-0.8c0.09-0.43,0.14-0.87,0.14-1.34v-1.99c0-0.86-0.1-1.58-0.3-2.15
			c-0.09-0.25-0.22-0.52-0.39-0.8c-0.18-0.28-0.38-0.52-0.62-0.71s-0.54-0.35-0.92-0.48c-0.38-0.13-0.83-0.19-1.35-0.19
			c-0.53,0-1.04,0.04-1.55,0.13c-0.51,0.08-0.87,0.17-1.09,0.26l-0.32,0.13v-1.5c0.08-0.04,0.19-0.09,0.34-0.14
			S386.29,301.99,386.82,301.89z"/>
		<path d="M403.06,301.75c1.35,0,2.37,0.39,3.05,1.16c0.68,0.77,1.02,1.83,1.02,3.18v8.95h-4.73v-1.31h2.95v-7.57
			c0-2-0.97-2.99-2.9-2.99c-0.34,0-0.67,0.06-0.99,0.17c-0.33,0.11-0.6,0.25-0.82,0.4c-0.47,0.34-0.81,0.64-1,0.89l-0.13,0.16
			l-1.02,10.24h-1.79l1.01-10.06c0-0.03,0-0.1,0-0.22c0-0.12-0.05-0.43-0.15-0.93c-0.1-0.5-0.23-0.91-0.38-1.24l-0.28-0.63h1.79
			c0.19,0.3,0.36,0.76,0.5,1.38h0.08c0.37-0.42,0.82-0.76,1.34-1.03c0.27-0.14,0.63-0.26,1.08-0.38
			C402.11,301.81,402.58,301.75,403.06,301.75z"/>
		<path d="M415.97,301.75c1.66,0,2.98,0.56,3.95,1.67c0.97,1.12,1.46,2.81,1.46,5.07c0,0.92-0.09,1.76-0.28,2.51
			s-0.44,1.39-0.77,1.91c-0.33,0.52-0.72,0.95-1.18,1.31c-0.46,0.35-0.95,0.61-1.48,0.78c-0.53,0.16-1.1,0.24-1.7,0.24
			c-0.6,0-1.17-0.08-1.7-0.24c-0.53-0.16-1.03-0.42-1.48-0.78c-0.46-0.36-0.85-0.79-1.18-1.31c-0.33-0.52-0.58-1.15-0.77-1.91
			s-0.28-1.59-0.28-2.51c0-1.26,0.15-2.33,0.46-3.21c0.3-0.88,0.68-1.55,1.13-2.01l-1.38,0.08v-1.43
			C412.29,301.81,414.02,301.75,415.97,301.75z M412.83,305.56c-0.28,0.99-0.41,1.91-0.41,2.76c0,0.85,0.06,1.57,0.17,2.17
			c0.11,0.6,0.3,1.16,0.55,1.68c0.26,0.52,0.63,0.93,1.11,1.23c0.48,0.29,1.06,0.44,1.73,0.44s1.25-0.15,1.73-0.44
			c0.48-0.29,0.85-0.7,1.11-1.23c0.48-0.97,0.72-2.19,0.72-3.66c0-1.95-0.34-3.35-1.03-4.22c-0.26-0.32-0.6-0.59-1.03-0.79
			c-0.43-0.2-0.93-0.3-1.49-0.3l-1.92,0.02C413.51,303.78,413.11,304.56,412.83,305.56z"/>
		<path d="M426.67,315.04h-1.79v-13.08h1.79V315.04z"/>
		<path d="M436.66,301.75c1.35,0,2.37,0.39,3.05,1.16c0.68,0.77,1.02,1.83,1.02,3.18v8.95H436v-1.31h2.95v-7.57
			c0-2-0.97-2.99-2.9-2.99c-0.34,0-0.67,0.06-0.99,0.17c-0.33,0.11-0.6,0.25-0.82,0.4c-0.47,0.34-0.81,0.64-1,0.89l-0.13,0.16
			l-1.02,10.24h-1.79l1.01-10.06c0-0.03,0-0.1,0-0.22c0-0.12-0.05-0.43-0.15-0.93c-0.1-0.5-0.23-0.91-0.38-1.24l-0.28-0.63h1.79
			c0.19,0.3,0.36,0.76,0.5,1.38h0.08c0.37-0.42,0.82-0.76,1.34-1.03c0.27-0.14,0.63-0.26,1.08-0.38
			C435.71,301.81,436.18,301.75,436.66,301.75z"/>
		<path d="M446.68,315.04h-1.79v-13.08h1.79V315.04z"/>
	</g>
</g>
</svg>
