<?xml version="1.0" encoding="utf-8"?>
<!-- Generator: Adobe Illustrator 24.0.1, SVG Export Plug-In . SVG Version: 6.00 Build 0)  -->
<svg version="1.1" id="Layer_1" xmlns="http://www.w3.org/2000/svg" xmlns:xlink="http://www.w3.org/1999/xlink" x="0px" y="0px"
	 viewBox="0 0 500 500" style="enable-background:new 0 0 500 500;" xml:space="preserve">
<style type="text/css">
	.st0{fill:#82171D;}
</style>
<g>
	<g>
		<g>
			<g>
				<path d="M309.37,252.08v-6.18c0-1.89-0.45-3.24-1.61-4.58c-1.22-1.26-2.36-1.56-4.01-1.56h-4.88v12.36h-2.87v-0.94h2.01v-12.39
					h5.75c1.92,0,3.21,0.39,4.59,1.84c1.41,1.54,1.9,3.08,1.9,5.27v6.18H309.37z"/>
				<path d="M321.55,252.08c0-2.51,0-6.16,0-6.16c0-1.72-0.39-3.4-1.55-4.64c-1.12-1.24-2.65-1.52-4.26-1.52h-3.56v-0.97h3.48
					c1.88,0,3.64,0.37,4.96,1.82c1.34,1.45,1.8,3.24,1.8,5.31c0,0,0,3.65,0,6.16H321.55z"/>
				<path d="M331.89,252.12c-4.69,0-7.3-4.73-7.3-8.53v-4.8h0.85v4.8c0,3.38,2.31,7.59,6.45,7.59c4.14,0,6.47-4.2,6.47-7.59v-4.8
					h0.85v4.8C339.21,247.39,336.59,252.12,331.89,252.12z M331.48,249.57v-10.78h0.85v10.78H331.48z"/>
				<path d="M348.07,252.08v-5.01l-5.46,5.01h-1.28l6.74-6.27c0-1.82-0.04-3.06-1.22-4.37c-1.07-1.24-2.29-1.7-3.83-1.7h-1.55v-0.94
					h1.55c1.8,0,3.19,0.55,4.49,1.95c1.33,1.52,1.45,3.04,1.41,5.17v6.16H348.07z"/>
				<path d="M356.44,252.08v-0.92h6.12v-5.65c0-3.24-2.26-5.75-5.17-5.75c-2.79,0-5.19,2.73-5.19,5.88v6.46h-0.87v-6.46
					c0-3.68,2.71-6.85,6.04-6.85c3.41,0,6.04,2.94,6.04,6.71v6.57H356.44z"/>
				<path d="M365.67,252.08v-13.31h0.85v13.31H365.67z"/>
				<path d="M375.69,254.07v-15.3h0.85v15.3H375.69z"/>
				<path d="M378.94,246.24v-7.47h0.87v7.47H378.94z"/>
				<path d="M391.08,239.74v12.34h-0.85v-12.34h-8.17v-0.97h10.77v0.97H391.08z"/>
				<path d="M413.71,252.08v-6.18c0-1.89-0.46-3.24-1.61-4.58c-1.22-1.26-2.36-1.56-4.01-1.56h-4.88v12.36h-2.88v-0.94h2v-12.39
					h5.75c1.92,0,3.2,0.39,4.59,1.84c1.4,1.54,1.9,3.08,1.9,5.27v6.18H413.71z"/>
				<path d="M422.29,252.08h-5.5v-0.9h5.5c3.41,0,5.15-2.74,5.15-5.75c0-2.96-1.69-5.7-5.42-5.7h-5.23v-0.94h5.23
					c4.01,0,6.29,3.2,6.29,6.64C428.31,248.9,426.16,252.08,422.29,252.08z"/>
				<path d="M439.19,252.08c0-2.51,0-6.16,0-6.16c0-1.72-0.4-3.4-1.55-4.64c-1.12-1.24-2.65-1.52-4.26-1.52h-3.56v-0.97h3.48
					c1.88,0,3.64,0.37,4.96,1.82c1.35,1.45,1.8,3.24,1.8,5.31c0,0,0,3.65,0,6.16H439.19z"/>
				<path d="M442.25,252.08v-13.31h0.85v13.31H442.25z"/>
				<path d="M451.52,252.08h-6.45v-0.9h2.55v-12.39h0.81v12.39h3.1c1.09,0,5.19-0.71,5.19-6.18v-6.21h0.81v5.98
					C457.51,251.18,453.17,252.08,451.52,252.08z"/>
			</g>
			<g>
				<g>
					<path d="M233.98,227.26c0-3.54,0-8.7,0-8.7c0-2.43-0.55-4.8-2.19-6.55c-1.58-1.75-3.74-2.14-6.02-2.14h-5.03v-1.36h4.91
						c2.66,0,5.14,0.52,7.01,2.56c1.9,2.04,2.54,4.58,2.54,7.5c0,0,0,5.16,0,8.7H233.98z"/>
					<path d="M238.25,219.02v-10.55h1.23v10.55H238.25z"/>
					<path d="M251.12,227.33h-8.24V226h8.24c4.5,0,7.45-3.37,7.39-8.37c-0.06-4.77-3.88-7.76-8.12-7.76h-6.31V221h-1.23v-12.5h7.53
						c4.94,0,9.29,3.54,9.32,9.12C259.77,223.4,256.29,227.33,251.12,227.33z"/>
					<path d="M271.6,227.72c-4.73,0-9.17-3.8-9.17-11.1v-8.11h18.4v8.76C280.83,223.92,276.33,227.72,271.6,227.72z M279.72,209.8
						h-16.15v6.82c0,6,3.36,9.86,8.03,9.86c4.5,0,8.12-3.7,8.12-9.22V209.8z"/>
					<path d="M284.22,218.57v-1.36h10.66v1.36H284.22z"/>
					<path d="M298.59,227.26v-18.79h1.2v18.79H298.59z"/>
					<path d="M315.58,227.26c0-3.54,0-8.7,0-8.7c0-2.43-0.56-4.8-2.19-6.55c-1.58-1.75-3.74-2.14-6.02-2.14h-5.02v-1.36h4.91
						c2.66,0,5.14,0.52,7.01,2.56c1.9,2.04,2.54,4.58,2.54,7.5c0,0,0,5.16,0,8.7H315.58z"/>
					<path d="M332.06,224.37c-1.81,2.01-4.67,2.89-6.02,2.89V226c0.94,0,3.62-0.81,5.2-2.56c1.58-1.75,2.1-3.5,2.1-6v-7.59h-14.02
						v-3.77h1.2v2.43h14.02v8.92C334.54,220.32,333.92,222.33,332.06,224.37z"/>
					<path d="M338.13,227.26v-18.79h1.2v18.79H338.13z"/>
					<path d="M351.77,227.46c-5.11,0-9.35-5-9.35-10.26v-8.73h1.14v8.27c0,5.06,3.65,9.44,8.21,9.44c4.59,0,8.18-4.35,8.18-9.41
						v-6.98h-11.63v-1.33h12.76v8.31C361.09,222.1,357,227.46,351.77,227.46z"/>
					<path d="M373.21,227.72c-4.73,0-9.17-3.8-9.17-11.1v-8.11h18.4v8.76C382.44,223.92,377.94,227.72,373.21,227.72z M381.33,209.8
						h-16.15v6.82c0,6,3.36,9.86,8.03,9.86c4.5,0,8.12-3.7,8.12-9.22V209.8z"/>
					<path d="M395.2,219.02v-10.55h1.23v10.55H395.2z"/>
					<path d="M412.2,224.37c-1.81,2.01-4.67,2.89-6.02,2.89V226c0.94,0,3.62-0.81,5.2-2.56c1.58-1.75,2.1-3.5,2.1-6v-7.59h-14.02
						v-3.77h1.19v2.43h14.02v8.92C414.68,220.32,414.07,222.33,412.2,224.37z"/>
					<path d="M430.8,227.26c0-3.54,0-8.7,0-8.7c0-2.43-0.55-4.8-2.19-6.55c-1.58-1.75-3.74-2.14-6.02-2.14h-5.03v-1.36h4.91
						c2.66,0,5.14,0.52,7.01,2.56c1.9,2.04,2.54,4.58,2.54,7.5c0,0,0,5.16,0,8.7H430.8z"/>
					<path d="M435.13,227.26v-18.79h1.2v18.79H435.13z"/>
					<path d="M452.33,221.62l4.53,5.65h-1.37l-9.67-11.58c0,0-5.05,3.28-5.05,10.54v1.04h-1.14v-0.94c0-7.92,5.4-11.48,5.4-11.48
						l-5.14-6.33h1.52l10.16,12.23c0,0,4.47-4.41,4.47-9.47v-2.76h1.14v2.53C457.17,216.62,452.33,221.62,452.33,221.62z"/>
				</g>
				<path class="st0" d="M431.08,200.73c0-2.54,2.07-4.6,4.61-4.6c2.54,0,4.6,2.06,4.6,4.6c0,2.54-2.06,4.6-4.6,4.6
					C433.15,205.33,431.08,203.28,431.08,200.73z"/>
			</g>
		</g>
	</g>
	<g>
		<path d="M42.28,273.15c0-0.27,0.07-0.48,0.2-0.62c0.13-0.14,0.32-0.21,0.57-0.21c0.25,0,0.44,0.07,0.58,0.21
			c0.14,0.14,0.21,0.35,0.21,0.61c0,0.27-0.07,0.47-0.21,0.61c-0.14,0.14-0.33,0.21-0.57,0.21s-0.43-0.07-0.57-0.2
			S42.28,273.42,42.28,273.15z"/>
		<path d="M46.39,265.88c0.32-0.06,0.66-0.08,1.02-0.08s0.7,0.04,1,0.12s0.57,0.19,0.78,0.33c0.21,0.14,0.4,0.3,0.57,0.49
			c0.17,0.19,0.3,0.38,0.4,0.58c0.1,0.2,0.19,0.42,0.25,0.64c0.11,0.39,0.17,0.79,0.17,1.21v7.61h-1.07v-7.48
			c0-0.52-0.06-0.95-0.18-1.29c-0.05-0.15-0.13-0.31-0.24-0.48s-0.23-0.31-0.37-0.43c-0.14-0.11-0.33-0.21-0.55-0.29
			c-0.23-0.08-0.5-0.12-0.81-0.12s-0.63,0.03-0.93,0.08s-0.52,0.1-0.65,0.16l-0.19,0.08v-0.9c0.05-0.02,0.12-0.05,0.21-0.08
			C45.87,265.99,46.07,265.94,46.39,265.88z"/>
		<path d="M56.33,273c0.88,0,1.61-0.3,2.19-0.9c0.58-0.6,0.94-1.51,1.06-2.75l0.33-3.42h1.07l-0.32,3.42
			c-0.04,0.53-0.13,1-0.26,1.41s-0.27,0.74-0.41,1c-0.14,0.26-0.33,0.51-0.57,0.77c-0.24,0.26-0.5,0.47-0.79,0.65
			c-0.29,0.18-0.65,0.32-1.08,0.44c-0.42,0.11-0.89,0.17-1.39,0.17h-2.77l-0.69-7.86h1.08l0.39,4.39l0.86-0.27
			c0.66-0.2,1.04-0.77,1.14-1.69l0.25-2.43h1.07l-0.21,2.07c-0.03,0.28-0.07,0.53-0.12,0.75c-0.05,0.22-0.12,0.45-0.23,0.69
			c-0.11,0.24-0.24,0.45-0.39,0.63c-0.15,0.18-0.35,0.34-0.6,0.49c-0.25,0.15-0.54,0.26-0.87,0.34l-0.84,0.21l0.17,1.9H56.33z"/>
		<path d="M66.53,265.8c0.81,0,1.42,0.23,1.83,0.69c0.41,0.46,0.61,1.1,0.61,1.91v5.38h-2.84V273h1.77v-4.55
			c0-1.2-0.58-1.8-1.74-1.8c-0.2,0-0.4,0.03-0.6,0.1c-0.2,0.07-0.36,0.15-0.49,0.24c-0.28,0.21-0.48,0.39-0.6,0.54l-0.08,0.1
			l-0.61,6.16h-1.08l0.61-6.04c0-0.02,0-0.06,0-0.13s-0.03-0.26-0.09-0.56s-0.14-0.55-0.23-0.74l-0.17-0.38h1.08
			c0.12,0.18,0.22,0.46,0.3,0.83h0.05c0.22-0.25,0.49-0.46,0.81-0.62c0.16-0.08,0.38-0.16,0.65-0.23S66.24,265.8,66.53,265.8z"/>
		<path d="M71.54,273.87c-0.19,0-0.41-0.03-0.65-0.08v-0.83c0.31,0.04,0.49,0.06,0.52,0.06c0.62,0,0.92-0.34,0.92-1.04v-5.2
			l-0.91,0.08V266c1.2-0.13,2.25-0.2,3.15-0.2c0.77,0,1.41,0.12,1.94,0.35c0.55,0.24,0.93,0.64,1.14,1.18
			c0.11,0.29,0.16,0.61,0.16,0.97v5.48h-1.08v-5.5c0-1.08-0.77-1.63-2.31-1.63c-0.19,0-0.53,0.01-1.02,0.04v5.14
			c0,0.64-0.16,1.14-0.46,1.5C72.64,273.69,72.17,273.87,71.54,273.87z"/>
		<path d="M83.79,265.8c0.81,0,1.42,0.23,1.83,0.69c0.41,0.46,0.61,1.1,0.61,1.91v5.38h-2.84V273h1.77v-4.55
			c0-1.2-0.58-1.8-1.74-1.8c-0.2,0-0.4,0.03-0.6,0.1c-0.2,0.07-0.36,0.15-0.49,0.24c-0.28,0.21-0.48,0.39-0.6,0.54l-0.08,0.1
			l-0.61,6.16h-1.08l0.61-6.04c0-0.02,0-0.06,0-0.13s-0.03-0.26-0.09-0.56s-0.14-0.55-0.23-0.74l-0.17-0.38h1.08
			c0.12,0.18,0.22,0.46,0.3,0.83h0.05c0.22-0.25,0.49-0.46,0.81-0.62c0.16-0.08,0.38-0.16,0.65-0.23S83.5,265.8,83.79,265.8z"/>
		<path d="M92.65,273.78v-7.89c1-0.06,1.96-0.09,2.86-0.09c0.77,0,1.41,0.12,1.94,0.35c0.55,0.24,0.93,0.64,1.14,1.18
			c0.11,0.29,0.16,0.61,0.16,0.97v5.48h-1.07v-5.5c0-1.08-0.77-1.63-2.31-1.63l-1.63,0.05v7.07H92.65z"/>
		<path d="M101.45,265.88c0.32-0.06,0.66-0.08,1.02-0.08c0.36,0,0.7,0.04,1,0.12c0.31,0.08,0.57,0.19,0.78,0.33
			c0.21,0.14,0.4,0.3,0.57,0.49c0.17,0.19,0.3,0.38,0.4,0.58c0.1,0.2,0.18,0.42,0.25,0.64c0.12,0.39,0.17,0.79,0.17,1.21v1.33
			c0,0.24-0.02,0.51-0.07,0.79c-0.05,0.28-0.11,0.52-0.18,0.73s-0.19,0.42-0.36,0.67s-0.35,0.45-0.57,0.62
			c-0.22,0.17-0.5,0.31-0.86,0.42c-0.35,0.12-0.73,0.17-1.12,0.17s-0.74-0.02-1.04-0.05c-0.3-0.04-0.51-0.08-0.64-0.12l-0.18-0.05
			v-0.91c0.56,0.17,1.18,0.26,1.85,0.26c0.26,0,0.5-0.04,0.71-0.11s0.39-0.16,0.53-0.27c0.14-0.11,0.26-0.24,0.37-0.4
			c0.11-0.16,0.19-0.31,0.25-0.46s0.1-0.31,0.14-0.48c0.06-0.26,0.08-0.52,0.08-0.8v-1.19c0-0.52-0.06-0.95-0.18-1.29
			c-0.05-0.15-0.13-0.31-0.24-0.48s-0.23-0.31-0.37-0.43c-0.14-0.11-0.33-0.21-0.55-0.29c-0.23-0.08-0.5-0.12-0.81-0.12
			s-0.63,0.03-0.93,0.08s-0.52,0.1-0.65,0.16l-0.19,0.08v-0.9c0.05-0.02,0.12-0.05,0.21-0.08
			C100.93,265.99,101.14,265.94,101.45,265.88z"/>
		<path d="M111.58,271.13v-5.2h1.07v4.17l-0.85,1.04H111.58z"/>
		<path d="M116.14,273.78h-1.07v-7.86h1.07V273.78z"/>
		<path d="M118.25,268.61c0-0.45,0.09-0.85,0.27-1.22c0.18-0.37,0.42-0.66,0.73-0.89c0.3-0.23,0.64-0.4,1-0.52
			c0.37-0.12,0.74-0.18,1.12-0.18c0.37,0,0.72,0.05,1.04,0.15c0.32,0.1,0.62,0.25,0.89,0.47c0.28,0.21,0.51,0.48,0.71,0.79
			c0.2,0.31,0.35,0.69,0.46,1.15c0.11,0.45,0.17,0.96,0.17,1.51s-0.06,1.06-0.17,1.51c-0.11,0.45-0.27,0.83-0.46,1.15
			c-0.2,0.31-0.43,0.57-0.71,0.79c-0.53,0.41-1.17,0.61-1.91,0.61c-0.73,0-1.43-0.04-2.11-0.12l-0.32-0.04v-0.87
			c0,0,0.11,0.02,0.32,0.05c0.68,0.09,1.38,0.14,2.11,0.14c0.33,0,0.62-0.06,0.87-0.18c0.25-0.12,0.46-0.28,0.62-0.48
			c0.16-0.2,0.29-0.44,0.39-0.72c0.18-0.5,0.26-1.1,0.26-1.82c0-0.88-0.14-1.62-0.43-2.2c-0.16-0.32-0.38-0.56-0.67-0.74
			c-0.29-0.18-0.61-0.27-0.97-0.27s-0.67,0.04-0.92,0.12c-0.25,0.08-0.46,0.19-0.62,0.32s-0.29,0.29-0.39,0.46
			c-0.19,0.33-0.29,0.68-0.29,1.05c0,0.54,0.13,0.96,0.39,1.24s0.67,0.47,1.24,0.57l0.28,0.05l-0.17,0.75l-0.25-0.03
			c-0.75-0.09-1.36-0.36-1.81-0.79S118.25,269.36,118.25,268.61z"/>
		<path d="M126.65,271.13v-5.2h1.07v4.17l-0.85,1.04H126.65z"/>
		<path d="M129.77,265.89c0.69-0.06,1.5-0.09,2.42-0.09s1.61,0.19,2.05,0.57s0.67,1.02,0.67,1.93v4.7h0.95v0.79h-6.09V273h4.07
			v-4.71c0-0.62-0.15-1.05-0.45-1.28c-0.3-0.23-0.76-0.34-1.39-0.34c-0.67,0-1.3,0.02-1.91,0.07l-0.33,0.02V265.89z"/>
		<path d="M142.08,265.92h4.39v0.79l-1.12,4.02l-0.67,3.05h-1.08l0.67-3.05l1.13-4.02h-4.39v-2.4h1.07V265.92z"/>
		<path d="M147.93,268.61c0-0.45,0.09-0.85,0.27-1.22c0.18-0.37,0.42-0.66,0.73-0.89c0.3-0.23,0.64-0.4,1-0.52
			c0.37-0.12,0.74-0.18,1.12-0.18c0.37,0,0.72,0.05,1.04,0.15c0.32,0.1,0.62,0.25,0.89,0.47c0.28,0.21,0.51,0.48,0.71,0.79
			c0.2,0.31,0.35,0.69,0.46,1.15c0.11,0.45,0.17,0.96,0.17,1.51s-0.06,1.06-0.17,1.51c-0.11,0.45-0.27,0.83-0.46,1.15
			c-0.2,0.31-0.43,0.57-0.71,0.79c-0.53,0.41-1.17,0.61-1.91,0.61c-0.73,0-1.43-0.04-2.11-0.12l-0.32-0.04v-0.87
			c0,0,0.11,0.02,0.32,0.05c0.68,0.09,1.38,0.14,2.11,0.14c0.33,0,0.62-0.06,0.87-0.18c0.25-0.12,0.46-0.28,0.62-0.48
			c0.16-0.2,0.29-0.44,0.39-0.72c0.18-0.5,0.26-1.1,0.26-1.82c0-0.88-0.14-1.62-0.43-2.2c-0.16-0.32-0.38-0.56-0.67-0.74
			c-0.29-0.18-0.61-0.27-0.97-0.27s-0.67,0.04-0.92,0.12c-0.25,0.08-0.46,0.19-0.62,0.32s-0.29,0.29-0.39,0.46
			c-0.19,0.33-0.29,0.68-0.29,1.05c0,0.54,0.13,0.96,0.39,1.24s0.67,0.47,1.24,0.57l0.28,0.05l-0.17,0.75l-0.25-0.03
			c-0.75-0.09-1.36-0.36-1.81-0.79S147.93,269.36,147.93,268.61z"/>
		<path d="M161.18,267.3c-0.15-0.19-0.34-0.35-0.58-0.47s-0.54-0.18-0.88-0.18c-0.34,0-0.64,0.02-0.9,0.06v-0.83
			c0.25-0.05,0.56-0.08,0.92-0.08c0.36,0,0.7,0.05,1.01,0.15c0.31,0.1,0.6,0.25,0.86,0.47c0.26,0.21,0.49,0.48,0.67,0.79
			c0.4,0.66,0.59,1.54,0.59,2.65c0,0.55-0.06,1.06-0.17,1.51c-0.11,0.45-0.27,0.83-0.46,1.15c-0.2,0.31-0.43,0.57-0.71,0.79
			c-0.28,0.21-0.57,0.37-0.89,0.47s-0.66,0.15-1.02,0.15s-0.7-0.05-1.02-0.15c-0.32-0.1-0.62-0.25-0.89-0.47
			c-0.28-0.21-0.51-0.48-0.71-0.79c-0.2-0.31-0.35-0.69-0.46-1.15c-0.11-0.45-0.17-0.96-0.17-1.51v-3.93h1.11v3.93
			c0,0.88,0.14,1.62,0.43,2.2c0.15,0.32,0.38,0.56,0.67,0.74c0.29,0.18,0.62,0.26,0.98,0.26c0.37,0,0.68-0.06,0.93-0.18
			c0.25-0.12,0.46-0.28,0.61-0.48c0.16-0.2,0.29-0.44,0.38-0.72c0.18-0.5,0.26-1.11,0.26-1.82c0-0.35-0.02-0.67-0.04-0.96
			c-0.03-0.29-0.09-0.57-0.18-0.86C161.44,267.74,161.33,267.5,161.18,267.3z"/>
		<path d="M165.47,265.92h4.39v0.79l-1.12,4.02l-0.67,3.05h-1.08l0.67-3.05l1.13-4.02h-4.39v-2.4h1.07V265.92z"/>
		<path d="M175.74,273.87c-0.19,0-0.41-0.03-0.65-0.08v-0.83c0.31,0.04,0.49,0.06,0.52,0.06c0.62,0,0.92-0.34,0.92-1.04v-5.2
			l-0.91,0.08V266c1.2-0.13,2.25-0.2,3.15-0.2c0.77,0,1.41,0.12,1.94,0.35c0.55,0.24,0.93,0.64,1.14,1.18
			c0.11,0.29,0.16,0.61,0.16,0.97v5.48h-1.08v-5.5c0-1.08-0.77-1.63-2.31-1.63c-0.19,0-0.53,0.01-1.02,0.04v5.14
			c0,0.64-0.16,1.14-0.46,1.5C176.83,273.69,176.36,273.87,175.74,273.87z"/>
		<path d="M184.73,265.88c0.32-0.06,0.66-0.08,1.02-0.08c0.36,0,0.7,0.04,1,0.12c0.31,0.08,0.57,0.19,0.78,0.33
			c0.21,0.14,0.4,0.3,0.57,0.49c0.17,0.19,0.3,0.38,0.4,0.58c0.1,0.2,0.18,0.42,0.25,0.64c0.12,0.39,0.17,0.79,0.17,1.21v1.33
			c0,0.24-0.02,0.51-0.07,0.79c-0.05,0.28-0.11,0.52-0.18,0.73s-0.19,0.42-0.36,0.67s-0.35,0.45-0.57,0.62
			c-0.22,0.17-0.5,0.31-0.86,0.42c-0.35,0.12-0.73,0.17-1.12,0.17s-0.74-0.02-1.04-0.05c-0.3-0.04-0.51-0.08-0.64-0.12l-0.18-0.05
			v-0.91c0.56,0.17,1.18,0.26,1.85,0.26c0.26,0,0.5-0.04,0.71-0.11s0.39-0.16,0.53-0.27c0.14-0.11,0.26-0.24,0.37-0.4
			c0.11-0.16,0.19-0.31,0.25-0.46s0.1-0.31,0.14-0.48c0.06-0.26,0.08-0.52,0.08-0.8v-1.19c0-0.52-0.06-0.95-0.18-1.29
			c-0.05-0.15-0.13-0.31-0.24-0.48s-0.23-0.31-0.37-0.43c-0.14-0.11-0.33-0.21-0.55-0.29c-0.23-0.08-0.5-0.12-0.81-0.12
			s-0.63,0.03-0.93,0.08s-0.52,0.1-0.65,0.16l-0.19,0.08v-0.9c0.05-0.02,0.12-0.05,0.21-0.08
			C184.21,265.99,184.41,265.94,184.73,265.88z"/>
		<path d="M194.49,265.8c0.81,0,1.42,0.23,1.83,0.69c0.41,0.46,0.61,1.1,0.61,1.91v5.38h-2.84V273h1.77v-4.55
			c0-1.2-0.58-1.8-1.74-1.8c-0.2,0-0.4,0.03-0.6,0.1c-0.2,0.07-0.36,0.15-0.49,0.24c-0.28,0.21-0.48,0.39-0.6,0.54l-0.08,0.1
			l-0.61,6.16h-1.08l0.61-6.04c0-0.02,0-0.06,0-0.13s-0.03-0.26-0.09-0.56s-0.14-0.55-0.23-0.74l-0.17-0.38h1.08
			c0.12,0.18,0.22,0.46,0.3,0.83h0.05c0.22-0.25,0.49-0.46,0.81-0.62c0.16-0.08,0.38-0.16,0.65-0.23S194.2,265.8,194.49,265.8z"/>
		<path d="M202.25,265.8c1,0,1.79,0.33,2.37,1.01c0.58,0.67,0.88,1.69,0.88,3.05c0,0.55-0.06,1.06-0.17,1.51
			c-0.11,0.45-0.27,0.83-0.46,1.15c-0.2,0.31-0.43,0.57-0.71,0.79c-0.28,0.21-0.57,0.37-0.89,0.47s-0.66,0.15-1.02,0.15
			c-0.36,0-0.7-0.05-1.02-0.15c-0.32-0.1-0.62-0.25-0.89-0.47c-0.28-0.21-0.51-0.48-0.71-0.79c-0.2-0.31-0.35-0.69-0.46-1.15
			c-0.11-0.45-0.17-0.96-0.17-1.51c0-0.76,0.09-1.4,0.27-1.93c0.18-0.53,0.41-0.93,0.68-1.21l-0.83,0.05v-0.86
			C200.04,265.83,201.08,265.8,202.25,265.8z M200.36,268.08c-0.17,0.6-0.25,1.15-0.25,1.66s0.03,0.94,0.1,1.3
			c0.07,0.36,0.18,0.7,0.33,1.01c0.15,0.31,0.38,0.56,0.67,0.74c0.29,0.18,0.63,0.26,1.04,0.26c0.4,0,0.75-0.09,1.04-0.26
			c0.29-0.18,0.51-0.42,0.67-0.74c0.29-0.58,0.43-1.32,0.43-2.2c0-1.17-0.21-2.01-0.62-2.54c-0.15-0.2-0.36-0.35-0.62-0.47
			c-0.26-0.12-0.56-0.18-0.9-0.18l-1.16,0.01C200.77,267.02,200.52,267.49,200.36,268.08z"/>
		<path d="M208.67,273.78h-1.07v-7.86h1.07V273.78z"/>
		<path d="M214.68,265.8c0.81,0,1.42,0.23,1.83,0.69c0.41,0.46,0.61,1.1,0.61,1.91v5.38h-2.84V273h1.77v-4.55
			c0-1.2-0.58-1.8-1.74-1.8c-0.2,0-0.4,0.03-0.6,0.1c-0.2,0.07-0.36,0.15-0.49,0.24c-0.28,0.21-0.48,0.39-0.6,0.54l-0.08,0.1
			l-0.61,6.16h-1.08l0.61-6.04c0-0.02,0-0.06,0-0.13s-0.03-0.26-0.09-0.56s-0.14-0.55-0.23-0.74l-0.17-0.38h1.08
			c0.12,0.18,0.22,0.46,0.3,0.83h0.05c0.22-0.25,0.49-0.46,0.81-0.62c0.16-0.08,0.38-0.16,0.65-0.23S214.39,265.8,214.68,265.8z"/>
		<path d="M220.7,273.78h-1.07v-7.86h1.07V273.78z"/>
		<path d="M227.04,268.31c0-0.8-0.15-1.59-0.45-2.38h1.07c0.03,0.08,0.08,0.19,0.13,0.33c0.05,0.14,0.12,0.42,0.2,0.83
			s0.13,0.82,0.13,1.22v8.47h-1.07V268.31z"/>
		<path d="M231.69,273.78h-1.07v-7.86h1.07V273.78z"/>
		<path d="M234.15,271.13v-5.2h1.07v4.17l-0.85,1.04H234.15z"/>
		<path d="M236.88,265.84c0.6-0.03,1.14-0.04,1.62-0.04c0.48,0,0.88,0.03,1.19,0.08s0.61,0.14,0.89,0.27
			c0.28,0.12,0.51,0.28,0.7,0.47c0.4,0.41,0.6,0.97,0.6,1.68v5.48h-1.07v-5.5c0-1.08-0.77-1.63-2.31-1.63c-0.46,0-1,0.01-1.62,0.04
			V265.84z"/>
		<path d="M249.14,267.3c-0.15-0.19-0.34-0.35-0.58-0.47s-0.54-0.18-0.88-0.18c-0.34,0-0.64,0.02-0.9,0.06v-0.83
			c0.25-0.05,0.56-0.08,0.92-0.08c0.36,0,0.7,0.05,1.01,0.15c0.31,0.1,0.6,0.25,0.86,0.47c0.26,0.21,0.49,0.48,0.67,0.79
			c0.4,0.66,0.59,1.54,0.59,2.65c0,0.55-0.06,1.06-0.17,1.51c-0.11,0.45-0.27,0.83-0.46,1.15c-0.2,0.31-0.43,0.57-0.71,0.79
			c-0.28,0.21-0.57,0.37-0.89,0.47s-0.66,0.15-1.02,0.15s-0.7-0.05-1.02-0.15c-0.32-0.1-0.62-0.25-0.89-0.47
			c-0.28-0.21-0.51-0.48-0.71-0.79c-0.2-0.31-0.35-0.69-0.46-1.15c-0.11-0.45-0.17-0.96-0.17-1.51v-3.93h1.11v3.93
			c0,0.88,0.14,1.62,0.43,2.2c0.15,0.32,0.38,0.56,0.67,0.74c0.29,0.18,0.62,0.26,0.98,0.26c0.37,0,0.68-0.06,0.93-0.18
			c0.25-0.12,0.46-0.28,0.61-0.48c0.16-0.2,0.29-0.44,0.38-0.72c0.18-0.5,0.26-1.11,0.26-1.82c0-0.35-0.02-0.67-0.04-0.96
			c-0.03-0.29-0.09-0.57-0.18-0.86C249.41,267.74,249.29,267.5,249.14,267.3z"/>
		<path d="M254.02,273.78h-1.07v-7.86h1.07V273.78z"/>
		<path d="M257.83,266.62c-0.23,0-0.5,0.04-0.79,0.11v-0.8c0.34-0.08,0.73-0.13,1.16-0.13c1.34,0,2.02,0.7,2.02,2.09v3.97
			c0,0.33-0.02,0.65-0.06,0.98c-0.04,0.32-0.08,0.56-0.13,0.71l-0.06,0.23h-3.84V273H259c0.09-0.3,0.13-0.68,0.13-1.13v-3.89
			c0-0.49-0.11-0.84-0.34-1.06C258.59,266.72,258.27,266.62,257.83,266.62z"/>
		<path d="M267.86,272.33l0.1,0.14c-0.11,0.4-0.27,0.87-0.48,1.41c-0.21,0.54-0.43,1.04-0.66,1.51H266
			c0.12-0.45,0.25-0.97,0.38-1.57c0.13-0.57,0.23-1.07,0.3-1.49H267.86z"/>
		<path d="M270.41,273.87c-0.19,0-0.41-0.03-0.65-0.08v-0.83c0.31,0.04,0.49,0.06,0.52,0.06c0.62,0,0.92-0.34,0.92-1.04v-5.2
			l-0.91,0.08V266c1.2-0.13,2.25-0.2,3.15-0.2c0.77,0,1.41,0.12,1.94,0.35c0.55,0.24,0.93,0.64,1.14,1.18
			c0.11,0.29,0.16,0.61,0.16,0.97v5.48h-1.08v-5.5c0-1.08-0.77-1.63-2.31-1.63c-0.19,0-0.53,0.01-1.02,0.04v5.14
			c0,0.64-0.16,1.14-0.46,1.5C271.51,273.69,271.04,273.87,270.41,273.87z"/>
		<path d="M278.44,265.84c0.6-0.03,1.14-0.04,1.62-0.04c0.48,0,0.88,0.03,1.19,0.08s0.61,0.14,0.89,0.27
			c0.28,0.12,0.51,0.28,0.7,0.47c0.4,0.41,0.6,0.97,0.6,1.68v5.48h-1.07v-5.5c0-1.08-0.77-1.63-2.31-1.63c-0.46,0-1,0.01-1.62,0.04
			V265.84z"/>
		<path d="M289.19,273c0.88,0,1.61-0.3,2.19-0.9c0.58-0.6,0.94-1.51,1.06-2.75l0.33-3.42h1.07l-0.32,3.42
			c-0.04,0.53-0.13,1-0.26,1.41s-0.27,0.74-0.41,1c-0.14,0.26-0.33,0.51-0.57,0.77c-0.24,0.26-0.5,0.47-0.79,0.65
			c-0.29,0.18-0.65,0.32-1.08,0.44c-0.42,0.11-0.89,0.17-1.39,0.17h-2.77l-0.69-7.86h1.08l0.39,4.39l0.86-0.27
			c0.66-0.2,1.04-0.77,1.14-1.69l0.25-2.43h1.07l-0.21,2.07c-0.03,0.28-0.07,0.53-0.12,0.75c-0.05,0.22-0.12,0.45-0.23,0.69
			c-0.11,0.24-0.24,0.45-0.39,0.63c-0.15,0.18-0.35,0.34-0.6,0.49c-0.25,0.15-0.54,0.26-0.87,0.34l-0.84,0.21l0.17,1.9H289.19z"/>
		<path d="M297.05,266.62c-0.23,0-0.5,0.04-0.79,0.11v-0.8c0.34-0.08,0.73-0.13,1.16-0.13c1.34,0,2.02,0.7,2.02,2.09v5.89h-0.88
			l-0.12-1.33h-0.05c-0.02,0.05-0.07,0.13-0.15,0.26c-0.08,0.12-0.16,0.23-0.24,0.32c-0.08,0.09-0.18,0.19-0.3,0.3
			c-0.12,0.11-0.26,0.21-0.39,0.29c-0.14,0.08-0.29,0.15-0.48,0.2c-0.18,0.05-0.37,0.08-0.57,0.08c-0.4,0-0.71-0.03-0.9-0.08
			l0.16-0.93c0.18,0.05,0.48,0.08,0.88,0.08c0.3,0,0.62-0.12,0.96-0.35c0.4-0.29,0.69-0.67,0.87-1.16c0.1-0.28,0.15-0.58,0.15-0.91
			v-2.58c0-0.49-0.11-0.84-0.34-1.06C297.81,266.72,297.49,266.62,297.05,266.62z"/>
		<path d="M305.4,265.8c0.81,0,1.42,0.23,1.83,0.69c0.41,0.46,0.61,1.1,0.61,1.91v5.38H305V273h1.77v-4.55c0-1.2-0.58-1.8-1.74-1.8
			c-0.2,0-0.4,0.03-0.6,0.1c-0.2,0.07-0.36,0.15-0.49,0.24c-0.28,0.21-0.48,0.39-0.6,0.54l-0.08,0.1l-0.61,6.16h-1.08l0.61-6.04
			c0-0.02,0-0.06,0-0.13s-0.03-0.26-0.09-0.56s-0.14-0.55-0.23-0.74l-0.17-0.38h1.08c0.12,0.18,0.22,0.46,0.3,0.83h0.05
			c0.22-0.25,0.49-0.46,0.81-0.62c0.16-0.08,0.38-0.16,0.65-0.23S305.11,265.8,305.4,265.8z"/>
		<path d="M315.49,272.33l0.1,0.14c-0.11,0.4-0.27,0.87-0.48,1.41c-0.21,0.54-0.43,1.04-0.66,1.51h-0.81
			c0.12-0.45,0.25-0.97,0.38-1.57c0.13-0.57,0.23-1.07,0.3-1.49H315.49z"/>
		<path d="M317.98,273.78v-7.82c0.75-0.11,1.71-0.17,2.86-0.17c2.16,0,3.24,0.71,3.24,2.15v5.84H317.98z M323,273v-4.91
			c0-0.26-0.04-0.47-0.14-0.65c-0.09-0.18-0.2-0.32-0.34-0.42s-0.31-0.18-0.53-0.23s-0.42-0.09-0.61-0.1
			c-0.19-0.01-0.41-0.02-0.66-0.02c-0.53,0-1,0.02-1.43,0.05l-0.24,0.02V273H323z"/>
		<path d="M326.49,271.13v-5.2h1.07v4.17l-0.85,1.04H326.49z"/>
		<path d="M334.74,267.3c-0.15-0.19-0.34-0.35-0.58-0.47s-0.54-0.18-0.88-0.18c-0.34,0-0.64,0.02-0.9,0.06v-0.83
			c0.25-0.05,0.56-0.08,0.92-0.08c0.36,0,0.7,0.05,1.01,0.15c0.31,0.1,0.6,0.25,0.86,0.47c0.26,0.21,0.49,0.48,0.67,0.79
			c0.4,0.66,0.59,1.54,0.59,2.65c0,0.55-0.06,1.06-0.17,1.51c-0.11,0.45-0.27,0.83-0.46,1.15c-0.2,0.31-0.43,0.57-0.71,0.79
			c-0.28,0.21-0.57,0.37-0.89,0.47s-0.66,0.15-1.02,0.15s-0.7-0.05-1.02-0.15c-0.32-0.1-0.62-0.25-0.89-0.47
			c-0.28-0.21-0.51-0.48-0.71-0.79c-0.2-0.31-0.35-0.69-0.46-1.15c-0.11-0.45-0.17-0.96-0.17-1.51v-3.93h1.11v3.93
			c0,0.88,0.14,1.62,0.43,2.2c0.15,0.32,0.38,0.56,0.67,0.74c0.29,0.18,0.62,0.26,0.98,0.26c0.37,0,0.68-0.06,0.93-0.18
			c0.25-0.12,0.46-0.28,0.61-0.48c0.16-0.2,0.29-0.44,0.38-0.72c0.18-0.5,0.26-1.11,0.26-1.82c0-0.35-0.02-0.67-0.04-0.96
			c-0.03-0.29-0.09-0.57-0.18-0.86C335.01,267.74,334.89,267.5,334.74,267.3z"/>
		<path d="M338.11,268.61c0-0.45,0.09-0.85,0.27-1.22c0.18-0.37,0.42-0.66,0.73-0.89c0.3-0.23,0.64-0.4,1-0.52
			c0.37-0.12,0.74-0.18,1.12-0.18c0.37,0,0.72,0.05,1.04,0.15c0.32,0.1,0.62,0.25,0.89,0.47c0.28,0.21,0.51,0.48,0.71,0.79
			c0.2,0.31,0.35,0.69,0.46,1.15c0.11,0.45,0.17,0.96,0.17,1.51s-0.06,1.06-0.17,1.51c-0.11,0.45-0.27,0.83-0.46,1.15
			c-0.2,0.31-0.43,0.57-0.71,0.79c-0.53,0.41-1.17,0.61-1.91,0.61c-0.73,0-1.43-0.04-2.11-0.12l-0.32-0.04v-0.87
			c0,0,0.11,0.02,0.32,0.05c0.68,0.09,1.38,0.14,2.11,0.14c0.33,0,0.62-0.06,0.87-0.18c0.25-0.12,0.46-0.28,0.62-0.48
			c0.16-0.2,0.29-0.44,0.39-0.72c0.18-0.5,0.26-1.1,0.26-1.82c0-0.88-0.14-1.62-0.43-2.2c-0.16-0.32-0.38-0.56-0.67-0.74
			c-0.29-0.18-0.61-0.27-0.97-0.27s-0.67,0.04-0.92,0.12c-0.25,0.08-0.46,0.19-0.62,0.32s-0.29,0.29-0.39,0.46
			c-0.19,0.33-0.29,0.68-0.29,1.05c0,0.54,0.13,0.96,0.39,1.24s0.67,0.47,1.24,0.57l0.28,0.05l-0.17,0.75l-0.25-0.03
			c-0.75-0.09-1.36-0.36-1.81-0.79S338.11,269.36,338.11,268.61z"/>
		<path d="M349.85,273c0.88,0,1.61-0.3,2.19-0.9c0.58-0.6,0.94-1.51,1.06-2.75l0.33-3.42h1.07l-0.32,3.42
			c-0.04,0.53-0.13,1-0.26,1.41s-0.27,0.74-0.41,1c-0.14,0.26-0.33,0.51-0.57,0.77c-0.24,0.26-0.5,0.47-0.79,0.65
			c-0.29,0.18-0.65,0.32-1.08,0.44c-0.42,0.11-0.89,0.17-1.39,0.17h-2.77l-0.69-7.86h1.08l0.39,4.39l0.86-0.27
			c0.66-0.2,1.04-0.77,1.14-1.69l0.25-2.43h1.07l-0.21,2.07c-0.03,0.28-0.07,0.53-0.12,0.75c-0.05,0.22-0.12,0.45-0.23,0.69
			c-0.11,0.24-0.24,0.45-0.39,0.63c-0.15,0.18-0.35,0.34-0.6,0.49c-0.25,0.15-0.54,0.26-0.87,0.34l-0.84,0.21l0.17,1.9H349.85z"/>
		<path d="M360.05,265.8c0.81,0,1.42,0.23,1.83,0.69c0.41,0.46,0.61,1.1,0.61,1.91v5.38h-2.84V273h1.77v-4.55
			c0-1.2-0.58-1.8-1.74-1.8c-0.2,0-0.4,0.03-0.6,0.1c-0.2,0.07-0.36,0.15-0.49,0.24c-0.28,0.21-0.48,0.39-0.6,0.54l-0.08,0.1
			l-0.61,6.16h-1.08l0.61-6.04c0-0.02,0-0.06,0-0.13s-0.03-0.26-0.09-0.56s-0.14-0.55-0.23-0.74l-0.17-0.38h1.08
			c0.12,0.18,0.22,0.46,0.3,0.83h0.05c0.22-0.25,0.49-0.46,0.81-0.62c0.16-0.08,0.38-0.16,0.65-0.23S359.76,265.8,360.05,265.8z"/>
		<path d="M364.63,265.89c0.69-0.06,1.5-0.09,2.42-0.09s1.61,0.19,2.05,0.57s0.67,1.02,0.67,1.93v4.7h0.95v0.79h-6.09V273h4.07
			v-4.71c0-0.62-0.15-1.05-0.45-1.28c-0.3-0.23-0.76-0.34-1.39-0.34c-0.67,0-1.3,0.02-1.91,0.07l-0.33,0.02V265.89z"/>
		<path d="M376.51,273.87c-0.19,0-0.41-0.03-0.65-0.08v-0.83c0.31,0.04,0.49,0.06,0.52,0.06c0.62,0,0.92-0.34,0.92-1.04v-5.2
			l-0.91,0.08V266c1.2-0.13,2.25-0.2,3.15-0.2c0.77,0,1.41,0.12,1.94,0.35c0.55,0.24,0.93,0.64,1.14,1.18
			c0.11,0.29,0.16,0.61,0.16,0.97v5.48h-1.08v-5.5c0-1.08-0.77-1.63-2.31-1.63c-0.19,0-0.53,0.01-1.02,0.04v5.14
			c0,0.64-0.16,1.14-0.46,1.5C377.61,273.69,377.14,273.87,376.51,273.87z"/>
		<path d="M385.51,265.88c0.32-0.06,0.66-0.08,1.02-0.08c0.36,0,0.7,0.04,1,0.12c0.31,0.08,0.57,0.19,0.78,0.33
			c0.21,0.14,0.4,0.3,0.57,0.49c0.17,0.19,0.3,0.38,0.4,0.58c0.1,0.2,0.18,0.42,0.25,0.64c0.12,0.39,0.17,0.79,0.17,1.21v1.33
			c0,0.24-0.02,0.51-0.07,0.79c-0.05,0.28-0.11,0.52-0.18,0.73s-0.19,0.42-0.36,0.67s-0.35,0.45-0.57,0.62
			c-0.22,0.17-0.5,0.31-0.86,0.42c-0.35,0.12-0.73,0.17-1.12,0.17s-0.74-0.02-1.04-0.05c-0.3-0.04-0.51-0.08-0.64-0.12l-0.18-0.05
			v-0.91c0.56,0.17,1.18,0.26,1.85,0.26c0.26,0,0.5-0.04,0.71-0.11s0.39-0.16,0.53-0.27c0.14-0.11,0.26-0.24,0.37-0.4
			c0.11-0.16,0.19-0.31,0.25-0.46s0.1-0.31,0.14-0.48c0.06-0.26,0.08-0.52,0.08-0.8v-1.19c0-0.52-0.06-0.95-0.18-1.29
			c-0.05-0.15-0.13-0.31-0.24-0.48s-0.23-0.31-0.37-0.43c-0.14-0.11-0.33-0.21-0.55-0.29c-0.23-0.08-0.5-0.12-0.81-0.12
			s-0.63,0.03-0.93,0.08s-0.52,0.1-0.65,0.16l-0.19,0.08v-0.9c0.05-0.02,0.12-0.05,0.21-0.08
			C384.99,265.99,385.19,265.94,385.51,265.88z"/>
		<path d="M395.27,265.8c0.81,0,1.42,0.23,1.83,0.69c0.41,0.46,0.61,1.1,0.61,1.91v5.38h-2.84V273h1.77v-4.55
			c0-1.2-0.58-1.8-1.74-1.8c-0.2,0-0.4,0.03-0.6,0.1c-0.2,0.07-0.36,0.15-0.49,0.24c-0.28,0.21-0.48,0.39-0.6,0.54l-0.08,0.1
			l-0.61,6.16h-1.08l0.61-6.04c0-0.02,0-0.06,0-0.13s-0.03-0.26-0.09-0.56s-0.14-0.55-0.23-0.74l-0.17-0.38h1.08
			c0.12,0.18,0.22,0.46,0.3,0.83h0.05c0.22-0.25,0.49-0.46,0.81-0.62c0.16-0.08,0.38-0.16,0.65-0.23S394.98,265.8,395.27,265.8z"/>
		<path d="M403.03,265.8c1,0,1.79,0.33,2.37,1.01c0.58,0.67,0.88,1.69,0.88,3.05c0,0.55-0.06,1.06-0.17,1.51
			c-0.11,0.45-0.27,0.83-0.46,1.15c-0.2,0.31-0.43,0.57-0.71,0.79c-0.28,0.21-0.57,0.37-0.89,0.47s-0.66,0.15-1.02,0.15
			c-0.36,0-0.7-0.05-1.02-0.15c-0.32-0.1-0.62-0.25-0.89-0.47c-0.28-0.21-0.51-0.48-0.71-0.79c-0.2-0.31-0.35-0.69-0.46-1.15
			c-0.11-0.45-0.17-0.96-0.17-1.51c0-0.76,0.09-1.4,0.27-1.93c0.18-0.53,0.41-0.93,0.68-1.21l-0.83,0.05v-0.86
			C400.81,265.83,401.85,265.8,403.03,265.8z M401.14,268.08c-0.17,0.6-0.25,1.15-0.25,1.66s0.03,0.94,0.1,1.3
			c0.07,0.36,0.18,0.7,0.33,1.01c0.15,0.31,0.38,0.56,0.67,0.74c0.29,0.18,0.63,0.26,1.04,0.26c0.4,0,0.75-0.09,1.04-0.26
			c0.29-0.18,0.51-0.42,0.67-0.74c0.29-0.58,0.43-1.32,0.43-2.2c0-1.17-0.21-2.01-0.62-2.54c-0.15-0.2-0.36-0.35-0.62-0.47
			c-0.26-0.12-0.56-0.18-0.9-0.18l-1.16,0.01C401.55,267.02,401.3,267.49,401.14,268.08z"/>
		<path d="M409.45,273.78h-1.07v-7.86h1.07V273.78z"/>
		<path d="M415.46,265.8c0.81,0,1.42,0.23,1.83,0.69c0.41,0.46,0.61,1.1,0.61,1.91v5.38h-2.84V273h1.77v-4.55
			c0-1.2-0.58-1.8-1.74-1.8c-0.2,0-0.4,0.03-0.6,0.1c-0.2,0.07-0.36,0.15-0.49,0.24c-0.28,0.21-0.48,0.39-0.6,0.54l-0.08,0.1
			l-0.61,6.16h-1.08l0.61-6.04c0-0.02,0-0.06,0-0.13s-0.03-0.26-0.09-0.56s-0.14-0.55-0.23-0.74l-0.17-0.38h1.08
			c0.12,0.18,0.22,0.46,0.3,0.83h0.05c0.22-0.25,0.49-0.46,0.81-0.62c0.16-0.08,0.38-0.16,0.65-0.23S415.16,265.8,415.46,265.8z"/>
		<path d="M421.48,273.78h-1.07v-7.86h1.07V273.78z"/>
		<path d="M428,273.87c-0.19,0-0.41-0.03-0.65-0.08v-0.83c0.31,0.04,0.49,0.06,0.52,0.06c0.62,0,0.92-0.34,0.92-1.04v-5.2
			l-0.91,0.08V266c1.2-0.13,2.25-0.2,3.15-0.2c0.77,0,1.41,0.12,1.94,0.35c0.55,0.24,0.93,0.64,1.14,1.18
			c0.11,0.29,0.16,0.61,0.16,0.97v5.48h-1.08v-5.5c0-1.08-0.77-1.63-2.31-1.63c-0.19,0-0.53,0.01-1.02,0.04v5.14
			c0,0.64-0.16,1.14-0.46,1.5C429.1,273.69,428.63,273.87,428,273.87z"/>
		<path d="M436.02,265.84c0.6-0.03,1.14-0.04,1.62-0.04c0.48,0,0.88,0.03,1.19,0.08s0.61,0.14,0.89,0.27
			c0.28,0.12,0.51,0.28,0.7,0.47c0.4,0.41,0.6,0.97,0.6,1.68v5.48h-1.07v-5.5c0-1.08-0.77-1.63-2.31-1.63c-0.46,0-1,0.01-1.62,0.04
			V265.84z"/>
		<path d="M444.65,266.62c-0.23,0-0.5,0.04-0.79,0.11v-0.8c0.34-0.08,0.73-0.13,1.16-0.13c1.34,0,2.02,0.7,2.02,2.09v5.89h-0.88
			l-0.12-1.33h-0.05c-0.02,0.05-0.07,0.13-0.15,0.26c-0.08,0.12-0.16,0.23-0.24,0.32c-0.08,0.09-0.18,0.19-0.3,0.3
			c-0.12,0.11-0.26,0.21-0.39,0.29c-0.14,0.08-0.29,0.15-0.48,0.2c-0.18,0.05-0.37,0.08-0.57,0.08c-0.4,0-0.71-0.03-0.9-0.08
			l0.16-0.93c0.18,0.05,0.48,0.08,0.88,0.08c0.3,0,0.62-0.12,0.96-0.35c0.4-0.29,0.69-0.67,0.87-1.16c0.1-0.28,0.15-0.58,0.15-0.91
			v-2.58c0-0.49-0.11-0.84-0.34-1.06C445.4,266.72,445.08,266.62,444.65,266.62z"/>
		<path d="M450.61,273.78h-1.07v-7.86h1.07V273.78z"/>
		<path d="M452.78,265.89c0.69-0.06,1.5-0.09,2.42-0.09s1.61,0.19,2.05,0.57s0.67,1.02,0.67,1.93v4.7h0.95v0.79h-6.09V273h4.07
			v-4.71c0-0.62-0.15-1.05-0.45-1.28c-0.3-0.23-0.76-0.34-1.39-0.34c-0.67,0-1.3,0.02-1.91,0.07l-0.33,0.02V265.89z"/>
	</g>
</g>
</svg>
